<svg width="121" height="25" viewBox="0 0 121 25" fill="none" xmlns="http://www.w3.org/2000/svg">
<path d="M20.587 22.539C20.5909 22.2548 20.6787 21.9781 20.8392 21.7438C20.9997 21.5094 21.2259 21.3278 21.4892 21.2218C21.7525 21.1159 22.0412 21.0902 22.319 21.1482C22.5968 21.2061 22.8513 21.3451 23.0505 21.5475C23.2496 21.7499 23.3846 22.0068 23.4384 22.2859C23.4922 22.5649 23.4624 22.8537 23.3527 23.1158C23.2431 23.378 23.0585 23.6018 22.8222 23.7591C22.5859 23.9165 22.3084 24.0003 22.0246 24.0001C21.8344 23.9987 21.6464 23.9598 21.4712 23.8856C21.296 23.8115 21.1371 23.7034 21.0036 23.5678C20.8701 23.4321 20.7646 23.2714 20.6931 23.0949C20.6216 22.9184 20.5856 22.7295 20.587 22.539Z" fill="white"/>
<path d="M20.587 22.539C20.5909 22.2548 20.6787 21.9781 20.8392 21.7438C20.9997 21.5094 21.2259 21.3278 21.4892 21.2218C21.7525 21.1159 22.0412 21.0902 22.319 21.1482C22.5968 21.2061 22.8513 21.3451 23.0505 21.5475C23.2496 21.7499 23.3846 22.0068 23.4384 22.2859C23.4922 22.5649 23.4624 22.8537 23.3527 23.1158C23.2431 23.378 23.0585 23.6018 22.8222 23.7591C22.5859 23.9165 22.3084 24.0003 22.0246 24.0001C21.8344 23.9987 21.6464 23.9598 21.4712 23.8856C21.296 23.8115 21.1371 23.7034 21.0036 23.5678C20.8701 23.4321 20.7646 23.2714 20.6931 23.0949C20.6216 22.9184 20.5856 22.7295 20.587 22.539Z" stroke="white" stroke-width="0.542257"/>
<path d="M20.5869 18.5695C20.5867 18.2844 20.6709 18.0056 20.8289 17.7684C20.9869 17.5312 21.2116 17.3463 21.4746 17.2371C21.7375 17.1279 22.0269 17.0993 22.3062 17.1548C22.5854 17.2104 22.8419 17.3477 23.0431 17.5493C23.2444 17.7509 23.3815 18.0078 23.437 18.2874C23.4925 18.5671 23.4639 18.8569 23.3548 19.1203C23.2458 19.3837 23.0612 19.6088 22.8244 19.767C22.5876 19.9253 22.3092 20.0096 22.0246 20.0094C21.6434 20.0091 21.2779 19.8573 21.0083 19.5873C20.7388 19.3173 20.5872 18.9513 20.5869 18.5695Z" stroke="white" stroke-width="0.542257"/>
<path d="M20.5869 14.6198C20.5869 14.3347 20.6713 14.0561 20.8295 13.8191C20.9876 13.582 21.2124 13.3973 21.4754 13.2883C21.7384 13.1793 22.0277 13.1508 22.3069 13.2065C22.586 13.2622 22.8424 13.3996 23.0436 13.6012C23.2447 13.8029 23.3817 14.0598 23.4371 14.3394C23.4924 14.619 23.4638 14.9088 23.3547 15.1721C23.2456 15.4354 23.061 15.6604 22.8243 15.8186C22.5875 15.9768 22.3092 16.0611 22.0246 16.0609C21.8357 16.0609 21.6486 16.0236 21.4741 15.9512C21.2996 15.8787 21.1411 15.7726 21.0076 15.6387C20.8741 15.5049 20.7682 15.346 20.696 15.1712C20.6238 14.9964 20.5868 14.809 20.5869 14.6198Z" fill="white"/>
<path d="M20.5869 14.6198C20.5869 14.3347 20.6713 14.0561 20.8295 13.8191C20.9876 13.582 21.2124 13.3973 21.4754 13.2883C21.7384 13.1793 22.0277 13.1508 22.3069 13.2065C22.586 13.2622 22.8424 13.3996 23.0436 13.6012C23.2447 13.8029 23.3817 14.0598 23.4371 14.3394C23.4924 14.619 23.4638 14.9088 23.3547 15.1721C23.2456 15.4354 23.061 15.6604 22.8243 15.8186C22.5875 15.9768 22.3092 16.0611 22.0246 16.0609C21.8357 16.0609 21.6486 16.0236 21.4741 15.9512C21.2996 15.8787 21.1411 15.7726 21.0076 15.6387C20.8741 15.5049 20.7682 15.346 20.696 15.1712C20.6238 14.9964 20.5868 14.809 20.5869 14.6198V14.6198Z" stroke="white" stroke-width="0.542257"/>
<path d="M20.587 10.6503C20.5909 10.3661 20.6787 10.0894 20.8392 9.85508C20.9997 9.62072 21.2259 9.43914 21.4892 9.33317C21.7525 9.2272 22.0412 9.20157 22.319 9.25952C22.5968 9.31746 22.8513 9.45639 23.0505 9.65882C23.2496 9.86125 23.3846 10.1182 23.4384 10.3972C23.4922 10.6763 23.4624 10.965 23.3527 11.2272C23.2431 11.4893 23.0585 11.7131 22.8222 11.8705C22.5859 12.0278 22.3084 12.1116 22.0246 12.1114C21.8344 12.1101 21.6464 12.0712 21.4712 11.997C21.296 11.9228 21.1371 11.8148 21.0036 11.6791C20.8701 11.5434 20.7646 11.3827 20.6931 11.2062C20.6216 11.0297 20.5856 10.8408 20.587 10.6503Z" stroke="white" stroke-width="0.542257"/>
<path d="M20.5869 6.6808C20.5867 6.39568 20.6709 6.11689 20.8289 5.87973C20.9869 5.64256 21.2116 5.45767 21.4746 5.34845C21.7375 5.23923 22.0269 5.21059 22.3062 5.26616C22.5854 5.32173 22.8419 5.459 23.0431 5.66061C23.2444 5.86222 23.3815 6.11911 23.437 6.39877C23.4925 6.67842 23.4639 6.96828 23.3548 7.23165C23.2458 7.49502 23.0612 7.72008 22.8244 7.87834C22.5876 8.0366 22.3092 8.12095 22.0246 8.12072C21.6433 8.12072 21.2776 7.96901 21.008 7.69897C20.7384 7.42894 20.5869 7.06269 20.5869 6.6808Z" stroke="white" stroke-width="0.542257"/>
<path d="M20.5869 2.73256C20.5867 2.44744 20.6709 2.16865 20.8289 1.93148C20.9869 1.69432 21.2116 1.50943 21.4746 1.40021C21.7375 1.29099 22.0269 1.26235 22.3062 1.31792C22.5854 1.37348 22.8419 1.51076 23.0431 1.71237C23.2444 1.91398 23.3815 2.17087 23.437 2.45053C23.4925 2.73018 23.4639 3.02003 23.3548 3.28341C23.2458 3.54678 23.0612 3.77184 22.8244 3.9301C22.5876 4.08836 22.3092 4.17271 22.0246 4.17247C21.6433 4.17247 21.2776 4.02077 21.008 3.75073C20.7384 3.4807 20.5869 3.11445 20.5869 2.73256Z" fill="white"/>
<path d="M20.5869 2.73256C20.5867 2.44744 20.6709 2.16865 20.8289 1.93148C20.9869 1.69432 21.2116 1.50943 21.4746 1.40021C21.7375 1.29099 22.0269 1.26235 22.3062 1.31792C22.5854 1.37348 22.8419 1.51076 23.0431 1.71237C23.2444 1.91398 23.3815 2.17087 23.437 2.45052C23.4925 2.73018 23.4639 3.02003 23.3548 3.28341C23.2458 3.54678 23.0612 3.77184 22.8244 3.9301C22.5876 4.08836 22.3092 4.17271 22.0246 4.17247C21.6433 4.17247 21.2776 4.02077 21.008 3.75073C20.7384 3.4807 20.5869 3.11445 20.5869 2.73256V2.73256Z" stroke="white" stroke-width="0.542257"/>
<path d="M16.6025 22.5388C16.6025 22.2498 16.6881 21.9673 16.8484 21.727C17.0087 21.4867 17.2365 21.2995 17.5031 21.1889C17.7697 21.0783 18.063 21.0493 18.346 21.1057C18.629 21.1621 18.8889 21.3013 19.0929 21.5056C19.297 21.7099 19.4359 21.9703 19.4922 22.2537C19.5485 22.5372 19.5196 22.8309 19.4092 23.0979C19.2988 23.3649 19.1118 23.5931 18.8719 23.7537C18.632 23.9142 18.3499 23.9999 18.0614 23.9999C17.6745 23.9999 17.3034 23.846 17.0298 23.572C16.7562 23.2979 16.6025 22.9263 16.6025 22.5388Z" fill="white"/>
<path d="M16.6025 22.5388C16.6025 22.2498 16.6881 21.9673 16.8484 21.727C17.0087 21.4867 17.2365 21.2995 17.5031 21.1889C17.7697 21.0783 18.063 21.0493 18.346 21.1057C18.629 21.1621 18.8889 21.3013 19.0929 21.5056C19.297 21.7099 19.4359 21.9703 19.4922 22.2537C19.5485 22.5372 19.5196 22.8309 19.4092 23.0979C19.2988 23.3649 19.1118 23.5931 18.8719 23.7537C18.632 23.9142 18.3499 23.9999 18.0614 23.9999C17.6745 23.9999 17.3034 23.846 17.0298 23.572C16.7562 23.2979 16.6025 22.9263 16.6025 22.5388V22.5388Z" stroke="white" stroke-width="0.542257"/>
<path d="M16.6027 18.5693C16.5985 18.2794 16.6805 17.9949 16.8382 17.7518C16.9959 17.5088 17.2222 17.3182 17.4884 17.2043C17.7546 17.0905 18.0486 17.0585 18.3329 17.1125C18.6173 17.1664 18.8792 17.3039 19.0854 17.5073C19.2915 17.7108 19.4326 17.9711 19.4906 18.2551C19.5486 18.5391 19.521 18.834 19.4112 19.1022C19.3015 19.3704 19.1145 19.5999 18.8742 19.7614C18.6338 19.9229 18.351 20.0092 18.0615 20.0092C17.6775 20.0117 17.3082 19.8615 17.0347 19.5915C16.7612 19.3215 16.6058 18.9539 16.6027 18.5693V18.5693Z" stroke="white" stroke-width="0.542257"/>
<path d="M16.6027 14.6199C16.5987 14.3301 16.6809 14.0456 16.8387 13.8027C16.9966 13.5598 17.223 13.3694 17.4892 13.2557C17.7554 13.1421 18.0494 13.1103 18.3337 13.1643C18.618 13.2184 18.8798 13.356 19.0858 13.5595C19.2918 13.763 19.4328 14.0233 19.4907 14.3073C19.5486 14.5913 19.5209 14.8861 19.4111 15.1542C19.3013 15.4224 19.1144 15.6518 18.8741 15.8133C18.6337 15.9747 18.3509 16.0609 18.0615 16.061C17.8712 16.0624 17.6825 16.0262 17.5062 15.9545C17.3299 15.8828 17.1694 15.777 17.0339 15.6432C16.8984 15.5094 16.7906 15.3501 16.7166 15.1745C16.6426 14.9989 16.6039 14.8105 16.6027 14.6199Z" fill="white"/>
<path d="M16.6027 14.6199C16.5987 14.3301 16.6809 14.0456 16.8387 13.8027C16.9966 13.5598 17.223 13.3694 17.4892 13.2557C17.7554 13.1421 18.0494 13.1103 18.3337 13.1643C18.618 13.2184 18.8798 13.356 19.0858 13.5595C19.2918 13.763 19.4328 14.0233 19.4907 14.3073C19.5486 14.5913 19.5209 14.8861 19.4111 15.1542C19.3013 15.4224 19.1144 15.6518 18.8741 15.8133C18.6337 15.9747 18.3509 16.0609 18.0615 16.061C17.8712 16.0624 17.6825 16.0262 17.5062 15.9545C17.3299 15.8828 17.1694 15.777 17.0339 15.6432C16.8984 15.5094 16.7906 15.3501 16.7166 15.1745C16.6426 14.9989 16.6039 14.8105 16.6027 14.6199Z" stroke="white" stroke-width="0.542257"/>
<path d="M16.6025 10.6504C16.6025 10.3614 16.6881 10.0789 16.8484 9.83858C17.0087 9.5983 17.2365 9.41102 17.5031 9.30043C17.7697 9.18984 18.063 9.16091 18.346 9.21729C18.629 9.27366 18.8889 9.41282 19.0929 9.61717C19.297 9.82151 19.4359 10.0819 19.4922 10.3653C19.5485 10.6487 19.5196 10.9425 19.4092 11.2095C19.2988 11.4765 19.1118 11.7047 18.8719 11.8652C18.632 12.0258 18.3499 12.1115 18.0614 12.1115C17.6745 12.1115 17.3034 11.9576 17.0298 11.6835C16.7562 11.4095 16.6025 11.0379 16.6025 10.6504Z" fill="white"/>
<path d="M16.6025 10.6504C16.6025 10.3614 16.6881 10.0789 16.8484 9.83858C17.0087 9.5983 17.2365 9.41102 17.5031 9.30043C17.7697 9.18984 18.063 9.16091 18.346 9.21729C18.629 9.27366 18.8889 9.41282 19.0929 9.61717C19.297 9.82151 19.4359 10.0819 19.4922 10.3653C19.5485 10.6487 19.5196 10.9425 19.4092 11.2095C19.2988 11.4765 19.1118 11.7047 18.8719 11.8652C18.632 12.0258 18.3499 12.1115 18.0614 12.1115C17.6745 12.1115 17.3034 11.9576 17.0298 11.6835C16.7562 11.4095 16.6025 11.0379 16.6025 10.6504V10.6504Z" stroke="white" stroke-width="0.542257"/>
<path d="M16.6027 6.68086C16.5985 6.391 16.6805 6.10645 16.8382 5.86339C16.9959 5.62033 17.2222 5.42975 17.4884 5.3159C17.7546 5.20205 18.0486 5.17006 18.3329 5.22402C18.6173 5.27798 18.8792 5.41544 19.0854 5.61891C19.2915 5.82239 19.4326 6.08268 19.4906 6.36668C19.5486 6.65068 19.521 6.94554 19.4112 7.21377C19.3015 7.482 19.1145 7.71147 18.8742 7.87298C18.6338 8.03449 18.351 8.12074 18.0615 8.12077C17.8713 8.12217 17.6827 8.08604 17.5065 8.01443C17.3303 7.94283 17.1698 7.83715 17.0344 7.70344C16.8989 7.56973 16.791 7.41061 16.717 7.23515C16.6429 7.0597 16.6041 6.87135 16.6027 6.68086Z" fill="white"/>
<path d="M16.6027 6.68086C16.5985 6.391 16.6805 6.10645 16.8382 5.86339C16.9959 5.62033 17.2222 5.42975 17.4884 5.3159C17.7546 5.20205 18.0486 5.17006 18.3329 5.22402C18.6173 5.27798 18.8792 5.41544 19.0854 5.61891C19.2915 5.82239 19.4326 6.08268 19.4906 6.36668C19.5486 6.65068 19.521 6.94554 19.4112 7.21377C19.3015 7.482 19.1145 7.71147 18.8742 7.87298C18.6338 8.03449 18.351 8.12074 18.0615 8.12077C17.8713 8.12217 17.6827 8.08604 17.5065 8.01443C17.3303 7.94283 17.1698 7.83715 17.0344 7.70344C16.8989 7.56973 16.791 7.41061 16.717 7.23515C16.6429 7.05969 16.6041 6.87135 16.6027 6.68086Z" stroke="white" stroke-width="0.542257"/>
<path d="M16.6027 2.73262C16.5985 2.44276 16.6805 2.15821 16.8382 1.91515C16.9959 1.67209 17.2222 1.48151 17.4884 1.36766C17.7546 1.2538 18.0486 1.22182 18.3329 1.27578C18.6173 1.32974 18.8792 1.4672 19.0854 1.67067C19.2915 1.87415 19.4326 2.13444 19.4906 2.41844C19.5486 2.70243 19.521 2.9973 19.4112 3.26553C19.3015 3.53376 19.1145 3.76322 18.8742 3.92473C18.6338 4.08624 18.351 4.1725 18.0615 4.17253C17.8713 4.17393 17.6827 4.1378 17.5065 4.06619C17.3303 3.99458 17.1698 3.88891 17.0344 3.7552C16.8989 3.62149 16.791 3.46236 16.717 3.28691C16.6429 3.11145 16.6041 2.9231 16.6027 2.73262Z" fill="white"/>
<path d="M16.6027 2.73262C16.5985 2.44276 16.6805 2.15821 16.8382 1.91515C16.9959 1.67209 17.2222 1.48151 17.4884 1.36766C17.7546 1.2538 18.0486 1.22182 18.3329 1.27578C18.6173 1.32974 18.8792 1.4672 19.0854 1.67067C19.2915 1.87415 19.4326 2.13444 19.4906 2.41844C19.5486 2.70243 19.521 2.9973 19.4112 3.26553C19.3015 3.53376 19.1145 3.76322 18.8742 3.92473C18.6338 4.08624 18.351 4.1725 18.0615 4.17253C17.8713 4.17393 17.6827 4.1378 17.5065 4.06619C17.3303 3.99458 17.1698 3.88891 17.0344 3.7552C16.8989 3.62149 16.791 3.46236 16.717 3.28691C16.6429 3.11145 16.6041 2.9231 16.6027 2.73262V2.73262Z" stroke="white" stroke-width="0.542257"/>
<path d="M12.6605 22.539C12.6645 22.2546 12.7523 21.9777 12.9131 21.7433C13.0738 21.5088 13.3002 21.3272 13.5638 21.2214C13.8274 21.1156 14.1163 21.0902 14.3943 21.1486C14.6722 21.2069 14.9267 21.3463 15.1257 21.5492C15.3247 21.7521 15.4593 22.0094 15.5125 22.2888C15.5658 22.5682 15.5353 22.8571 15.4249 23.1191C15.3145 23.3812 15.1292 23.6046 14.8923 23.7614C14.6554 23.9182 14.3774 24.0012 14.0935 24.0001C13.9033 23.9987 13.7152 23.9598 13.54 23.8856C13.3649 23.8115 13.206 23.7034 13.0725 23.5678C12.939 23.4321 12.8335 23.2714 12.762 23.0949C12.6905 22.9183 12.6544 22.7294 12.6558 22.539" fill="white"/>
<path d="M12.6607 22.539C12.6646 22.2546 12.7525 21.9777 12.9133 21.7433C13.074 21.5088 13.3004 21.3272 13.564 21.2214C13.8276 21.1156 14.1165 21.0902 14.3944 21.1486C14.6724 21.2069 14.9269 21.3463 15.1258 21.5492C15.3248 21.7521 15.4594 22.0094 15.5127 22.2888C15.5659 22.5682 15.5354 22.8571 15.4251 23.1191C15.3147 23.3812 15.1294 23.6046 14.8925 23.7614C14.6555 23.9182 14.3776 24.0012 14.0936 24.0001C13.7103 23.9961 13.3443 23.84 13.0757 23.5661C12.8071 23.2922 12.6579 22.9229 12.6607 22.539V22.539Z" stroke="white" stroke-width="0.542257"/>
<path d="M12.6605 18.5695C12.6602 18.2841 12.7446 18.0052 12.9028 17.7679C13.061 17.5306 13.286 17.3457 13.5492 17.2367C13.8125 17.1276 14.1021 17.0992 14.3815 17.1552C14.6608 17.2111 14.9173 17.3489 15.1184 17.551C15.3195 17.753 15.4562 18.0104 15.5111 18.2903C15.5661 18.5703 15.5368 18.8603 15.427 19.1236C15.3172 19.3869 15.1319 19.6116 14.8945 19.7693C14.6571 19.927 14.3783 20.0105 14.0934 20.0094C13.7122 20.0091 13.3467 19.8573 13.0772 19.5873C12.8076 19.3173 12.6561 18.9513 12.6558 18.5695" fill="white"/>
<path d="M12.6606 18.5695C12.6604 18.2841 12.7448 18.0052 12.903 17.7679C13.0612 17.5306 13.2862 17.3457 13.5494 17.2367C13.8126 17.1276 14.1023 17.0992 14.3816 17.1552C14.661 17.2111 14.9174 17.3489 15.1185 17.551C15.3196 17.753 15.4563 18.0104 15.5113 18.2903C15.5662 18.5703 15.537 18.8603 15.4272 19.1236C15.3174 19.3869 15.1321 19.6116 14.8947 19.7693C14.6573 19.927 14.3785 20.0105 14.0936 20.0094C13.7132 20.0078 13.3489 19.8555 13.0804 19.5856C12.8119 19.3158 12.661 18.9504 12.6606 18.5695V18.5695Z" stroke="white" stroke-width="0.542257"/>
<path d="M12.6606 14.6198C12.6606 14.3345 12.7452 14.0557 12.9035 13.8186C13.0619 13.5814 13.287 13.3967 13.5502 13.2878C13.8135 13.1789 14.1031 13.1508 14.3823 13.2068C14.6616 13.2629 14.918 13.4008 15.119 13.6029C15.3199 13.805 15.4565 14.0624 15.5114 14.3423C15.5662 14.6222 15.5369 14.9122 15.4271 15.1754C15.3173 15.4386 15.1319 15.6633 14.8946 15.8209C14.6572 15.9785 14.3784 16.0621 14.0936 16.0609C13.7129 16.0596 13.3483 15.9072 13.0796 15.6371C12.811 15.3669 12.6603 15.0011 12.6606 14.6198V14.6198Z" stroke="white" stroke-width="0.542257"/>
<path d="M14.0933 12.1588C13.7947 12.1628 13.5016 12.0777 13.2513 11.9144C13.001 11.7511 12.8049 11.517 12.6878 11.2418C12.5708 10.9665 12.5381 10.6626 12.5939 10.3687C12.6497 10.0748 12.7916 9.80422 13.0014 9.59127C13.2112 9.37832 13.4794 9.23266 13.7721 9.17282C14.0647 9.11298 14.3686 9.14165 14.6449 9.2552C14.9212 9.36875 15.1576 9.56204 15.324 9.8105C15.4904 10.059 15.5792 10.3514 15.5793 10.6505C15.5807 10.8473 15.5433 11.0424 15.4694 11.2247C15.3955 11.4071 15.2864 11.573 15.1484 11.7131C15.0104 11.8532 14.8462 11.9646 14.6651 12.0411C14.4841 12.1176 14.2898 12.1576 14.0933 12.1588Z" fill="white"/>
<path d="M14.0938 8.16916C13.7999 8.16916 13.5127 8.08188 13.2683 7.91834C13.0239 7.75481 12.8335 7.52238 12.721 7.25043C12.6086 6.97848 12.5791 6.67924 12.6365 6.39055C12.6938 6.10185 12.8353 5.83667 13.0431 5.62853C13.2509 5.42039 13.5157 5.27865 13.8039 5.22122C14.0922 5.1638 14.391 5.19327 14.6625 5.30592C14.934 5.41856 15.1661 5.60931 15.3293 5.85406C15.4926 6.0988 15.5798 6.38654 15.5798 6.68089C15.5798 7.07561 15.4232 7.45415 15.1445 7.73326C14.8659 8.01236 14.4879 8.16916 14.0938 8.16916Z" fill="white"/>
<path d="M14.0938 4.22214C13.7999 4.22214 13.5126 4.13483 13.2682 3.97124C13.0238 3.80766 12.8333 3.57515 12.7209 3.30314C12.6085 3.03112 12.5791 2.73182 12.6365 2.44309C12.694 2.15436 12.8356 1.88918 13.0435 1.68109C13.2515 1.473 13.5163 1.33135 13.8047 1.27406C14.093 1.21677 14.3918 1.24641 14.6633 1.35923C14.9348 1.47206 15.1668 1.663 15.3299 1.90789C15.493 2.15279 15.58 2.44065 15.5798 2.73505C15.5798 2.93044 15.5413 3.12391 15.4666 3.30441C15.3919 3.48491 15.2825 3.64889 15.1445 3.787C15.0065 3.9251 14.8427 4.03462 14.6624 4.10928C14.4821 4.18394 14.2889 4.2223 14.0938 4.22214Z" fill="white"/>
<path d="M8.7183 22.5388C8.72248 22.255 8.81033 21.9787 8.97082 21.7447C9.13131 21.5107 9.35728 21.3295 9.62031 21.2237C9.88335 21.118 10.1717 21.0925 10.4492 21.1504C10.7267 21.2084 10.9808 21.3471 11.1798 21.5493C11.3787 21.7515 11.5136 22.0081 11.5673 22.2868C11.6211 22.5656 11.5914 22.854 11.482 23.1159C11.3726 23.3777 11.1884 23.6014 10.9524 23.7587C10.7165 23.916 10.4394 23.9999 10.1559 23.9999C9.96576 23.9986 9.77771 23.9597 9.60253 23.8855C9.42735 23.8113 9.26848 23.7033 9.13498 23.5676C9.00148 23.4319 8.89597 23.2712 8.82448 23.0947C8.75298 22.9182 8.7169 22.7293 8.7183 22.5388V22.5388Z" stroke="white" stroke-width="0.542257"/>
<path d="M10.1565 20.0564C9.86255 20.0566 9.5751 19.9695 9.33056 19.806C9.08602 19.6426 8.89538 19.4102 8.78277 19.1382C8.67016 18.8662 8.64063 18.5669 8.69793 18.278C8.75523 17.9892 8.89677 17.7239 9.10465 17.5157C9.31253 17.3075 9.57741 17.1658 9.86576 17.1084C10.1541 17.051 10.453 17.0806 10.7245 17.1933C10.9961 17.3061 11.2282 17.4971 11.3913 17.742C11.5545 17.9869 11.6415 18.2748 11.6413 18.5693C11.6413 18.7646 11.6029 18.9579 11.5283 19.1384C11.4536 19.3188 11.3443 19.4827 11.2064 19.6208C11.0685 19.7589 10.9049 19.8684 10.7247 19.9432C10.5446 20.0179 10.3515 20.0564 10.1565 20.0564Z" fill="white"/>
<path d="M10.1565 16.1081C9.8626 16.1084 9.57519 16.0213 9.33068 15.8579C9.08617 15.6945 8.89553 15.4621 8.78288 15.1902C8.67024 14.9183 8.64064 14.619 8.69784 14.3302C8.75504 14.0415 8.89647 13.7762 9.10424 13.5679C9.312 13.3597 9.57676 13.2178 9.86504 13.1603C10.1533 13.1028 10.4521 13.1322 10.7237 13.2448C10.9953 13.3574 11.2275 13.5481 11.3908 13.7929C11.5541 14.0377 11.6413 14.3255 11.6413 14.6199C11.6413 15.0144 11.4849 15.3927 11.2065 15.6718C10.9281 15.9509 10.5504 16.1078 10.1565 16.1081Z" fill="white"/>
<path d="M8.7183 10.6504C8.72248 10.3665 8.81033 10.0903 8.97082 9.85627C9.13131 9.62229 9.35728 9.44104 9.62031 9.3353C9.88335 9.22956 10.1717 9.20406 10.4492 9.26199C10.7267 9.31993 10.9808 9.45871 11.1798 9.66091C11.3787 9.8631 11.5136 10.1197 11.5673 10.3984C11.6211 10.6771 11.5914 10.9656 11.482 11.2274C11.3726 11.4893 11.1884 11.7129 10.9524 11.8702C10.7165 12.0275 10.4394 12.1115 10.1559 12.1115C9.96576 12.1101 9.77771 12.0712 9.60253 11.9971C9.42735 11.9229 9.26848 11.8149 9.13498 11.6792C9.00148 11.5435 8.89597 11.3828 8.82448 11.2063C8.75298 11.0298 8.7169 10.8409 8.7183 10.6504Z" fill="white"/>
<path d="M10.1559 12.1115C10.9499 12.1115 11.5936 11.4573 11.5936 10.6504C11.5936 9.84339 10.9499 9.18921 10.1559 9.18921C9.36192 9.18921 8.71826 9.84339 8.71826 10.6504C8.71826 11.4573 9.36192 12.1115 10.1559 12.1115Z" stroke="white" stroke-width="0.542257"/>
<path d="M8.71826 6.68088C8.71826 6.3961 8.80258 6.1177 8.96055 5.88091C9.11852 5.64412 9.34305 5.45956 9.60575 5.35057C9.86844 5.24159 10.1575 5.21308 10.4364 5.26864C10.7153 5.32419 10.9714 5.46133 11.1725 5.66271C11.3735 5.86409 11.5105 6.12065 11.5659 6.39997C11.6214 6.67929 11.5929 6.96881 11.4841 7.23192C11.3753 7.49503 11.191 7.71991 10.9546 7.87813C10.7182 8.03635 10.4403 8.1208 10.1559 8.1208C9.77462 8.1208 9.40895 7.96909 9.13934 7.69906C8.86973 7.42902 8.71826 7.06277 8.71826 6.68088Z" fill="white"/>
<path d="M11.5554 7.01134C11.7378 6.23736 11.2592 5.46184 10.4864 5.27916C9.71369 5.09649 8.93939 5.57583 8.757 6.34981C8.57461 7.12379 9.0532 7.89931 9.82596 8.08198C10.5987 8.26466 11.373 7.78531 11.5554 7.01134Z" stroke="white" stroke-width="0.542257"/>
<path d="M10.1565 4.22214C9.86255 4.22237 9.5751 4.13526 9.33056 3.97181C9.08602 3.80837 8.89538 3.57595 8.78277 3.30395C8.67016 3.03196 8.64063 2.73262 8.69793 2.44382C8.75523 2.15501 8.89677 1.88972 9.10465 1.68151C9.31253 1.4733 9.57741 1.33153 9.86576 1.27415C10.1541 1.21676 10.453 1.24633 10.7245 1.35912C10.9961 1.47191 11.2282 1.66285 11.3913 1.90777C11.5545 2.1527 11.6415 2.4406 11.6413 2.73505C11.6413 2.93034 11.6029 3.12371 11.5283 3.30414C11.4536 3.48456 11.3443 3.64849 11.2064 3.78658C11.0685 3.92467 10.9049 4.03421 10.7247 4.10894C10.5446 4.18368 10.3515 4.22214 10.1565 4.22214Z" fill="white"/>
<path d="M4.73389 22.5388C4.73389 22.2498 4.81945 21.9673 4.97975 21.727C5.14005 21.4867 5.36789 21.2995 5.63445 21.1889C5.90102 21.0783 6.19435 21.0493 6.47734 21.1057C6.76032 21.1621 7.02026 21.3013 7.22429 21.5056C7.42831 21.7099 7.56725 21.9703 7.62354 22.2537C7.67983 22.5372 7.65094 22.8309 7.54052 23.0979C7.43011 23.3649 7.24312 23.5931 7.00322 23.7537C6.76331 23.9142 6.48126 23.9999 6.19273 23.9999C5.80582 23.9999 5.43476 23.846 5.16117 23.572C4.88759 23.2979 4.73389 22.9263 4.73389 22.5388Z" fill="white"/>
<path d="M4.73389 22.5388C4.73389 22.2498 4.81945 21.9673 4.97975 21.727C5.14005 21.4867 5.36789 21.2995 5.63445 21.1889C5.90102 21.0783 6.19435 21.0493 6.47734 21.1057C6.76032 21.1621 7.02026 21.3013 7.22429 21.5056C7.42831 21.7099 7.56725 21.9703 7.62354 22.2537C7.67983 22.5372 7.65094 22.8309 7.54052 23.0979C7.43011 23.3649 7.24312 23.5931 7.00322 23.7537C6.76331 23.9142 6.48126 23.9999 6.19273 23.9999C5.80582 23.9999 5.43476 23.846 5.16117 23.572C4.88759 23.2979 4.73389 22.9263 4.73389 22.5388V22.5388Z" stroke="white" stroke-width="0.542257"/>
<path d="M4.73404 18.5693C4.72984 18.2794 4.81181 17.9949 4.96953 17.7518C5.12725 17.5088 5.3536 17.3182 5.61977 17.2043C5.88594 17.0905 6.17991 17.0585 6.46428 17.1125C6.74865 17.1664 7.01056 17.3039 7.21671 17.5073C7.42286 17.7108 7.56392 17.9711 7.62195 18.2551C7.67998 18.5391 7.65235 18.834 7.54259 19.1022C7.43282 19.3704 7.24588 19.5999 7.00553 19.7614C6.76519 19.9229 6.48231 20.0092 6.19288 20.0092C5.80888 20.0117 5.43957 19.8615 5.16605 19.5915C4.89253 19.3215 4.73715 18.9539 4.73404 18.5693Z" fill="white"/>
<path d="M6.19273 20.0092C6.99843 20.0092 7.65157 19.3646 7.65157 18.5693C7.65157 17.7741 6.99843 17.1294 6.19273 17.1294C5.38703 17.1294 4.73389 17.7741 4.73389 18.5693C4.73389 19.3646 5.38703 20.0092 6.19273 20.0092Z" stroke="white" stroke-width="0.542257"/>
<path d="M4.73402 14.6199C4.73005 14.3301 4.81223 14.0456 4.97009 13.8027C5.12796 13.5598 5.35439 13.3694 5.62058 13.2557C5.88678 13.1421 6.18071 13.1103 6.465 13.1643C6.7493 13.2184 7.01111 13.356 7.21714 13.5595C7.42317 13.763 7.56411 14.0233 7.62204 14.3073C7.67997 14.5913 7.65227 14.8861 7.54247 15.1542C7.43267 15.4224 7.24572 15.6518 7.0054 15.8133C6.76508 15.9747 6.48225 16.0609 6.19287 16.061C6.00258 16.0624 5.81389 16.0262 5.63756 15.9545C5.46124 15.8828 5.30076 15.777 5.16527 15.6432C5.02979 15.5094 4.92197 15.3501 4.84797 15.1745C4.77398 14.9989 4.73526 14.8105 4.73402 14.6199V14.6199Z" stroke="white" stroke-width="0.542257"/>
<path d="M4.73389 10.6504C4.73389 10.3614 4.81945 10.0789 4.97975 9.83858C5.14005 9.5983 5.36789 9.41102 5.63445 9.30043C5.90102 9.18984 6.19435 9.16091 6.47734 9.21729C6.76032 9.27366 7.02026 9.41282 7.22429 9.61717C7.42831 9.82151 7.56725 10.0819 7.62354 10.3653C7.67983 10.6487 7.65094 10.9425 7.54052 11.2095C7.43011 11.4765 7.24312 11.7047 7.00322 11.8652C6.76331 12.0258 6.48126 12.1115 6.19273 12.1115C5.80582 12.1115 5.43476 11.9576 5.16117 11.6835C4.88759 11.4095 4.73389 11.0379 4.73389 10.6504Z" fill="white"/>
<path d="M6.19273 12.1115C6.99843 12.1115 7.65157 11.4573 7.65157 10.6504C7.65157 9.84339 6.99843 9.18921 6.19273 9.18921C5.38703 9.18921 4.73389 9.84339 4.73389 10.6504C4.73389 11.4573 5.38703 12.1115 6.19273 12.1115Z" stroke="white" stroke-width="0.542257"/>
<path d="M4.73404 6.68086C4.72984 6.391 4.81181 6.10645 4.96953 5.86339C5.12725 5.62033 5.3536 5.42975 5.61977 5.3159C5.88594 5.20205 6.17991 5.17006 6.46428 5.22402C6.74865 5.27798 7.01056 5.41544 7.21671 5.61891C7.42286 5.82239 7.56392 6.08268 7.62195 6.36668C7.67998 6.65068 7.65235 6.94554 7.54259 7.21377C7.43282 7.482 7.24588 7.71147 7.00553 7.87298C6.76519 8.03449 6.48231 8.12074 6.19288 8.12077C6.0027 8.12217 5.8141 8.08604 5.63785 8.01443C5.46161 7.94283 5.30117 7.83715 5.1657 7.70344C5.03024 7.56973 4.92239 7.41061 4.84833 7.23515C4.77426 7.0597 4.73543 6.87135 4.73404 6.68086Z" fill="white"/>
<path d="M6.19273 8.1208C6.99843 8.1208 7.65157 7.47613 7.65157 6.68088C7.65157 5.88564 6.99843 5.24097 6.19273 5.24097C5.38703 5.24097 4.73389 5.88564 4.73389 6.68088C4.73389 7.47613 5.38703 8.1208 6.19273 8.1208Z" stroke="white" stroke-width="0.542257"/>
<path d="M6.19273 4.17256C6.99843 4.17256 7.65157 3.52788 7.65157 2.73264C7.65157 1.9374 6.99843 1.29272 6.19273 1.29272C5.38703 1.29272 4.73389 1.9374 4.73389 2.73264C4.73389 3.52788 5.38703 4.17256 6.19273 4.17256Z" stroke="white" stroke-width="0.542257"/>
<path d="M0.788613 22.5388C0.792792 22.255 0.880647 21.9787 1.04114 21.7447C1.20163 21.5107 1.42759 21.3295 1.69063 21.2237C1.95366 21.118 2.24203 21.0925 2.5195 21.1504C2.79697 21.2084 3.05114 21.3471 3.25009 21.5493C3.44903 21.7515 3.58387 22.0081 3.63764 22.2868C3.69142 22.5656 3.66174 22.854 3.55233 23.1159C3.44292 23.3777 3.25867 23.6014 3.02273 23.7587C2.78679 23.916 2.50969 23.9999 2.22626 23.9999C2.03607 23.9986 1.84802 23.9597 1.67284 23.8855C1.49766 23.8113 1.33879 23.7033 1.20529 23.5676C1.07179 23.4319 0.966282 23.2712 0.894788 23.0947C0.823295 22.9182 0.787217 22.7293 0.788613 22.5388Z" fill="white"/>
<path d="M0.788613 22.5388C0.792792 22.255 0.880647 21.9787 1.04114 21.7447C1.20163 21.5107 1.42759 21.3295 1.69063 21.2237C1.95366 21.118 2.24203 21.0925 2.5195 21.1504C2.79697 21.2084 3.05114 21.3471 3.25009 21.5493C3.44903 21.7515 3.58387 22.0081 3.63764 22.2868C3.69142 22.5656 3.66174 22.854 3.55233 23.1159C3.44292 23.3777 3.25867 23.6014 3.02273 23.7587C2.78679 23.916 2.50969 23.9999 2.22626 23.9999C2.03607 23.9986 1.84802 23.9597 1.67284 23.8855C1.49766 23.8113 1.33879 23.7033 1.20529 23.5676C1.07179 23.4319 0.966282 23.2712 0.894788 23.0947C0.823295 22.9182 0.787217 22.7293 0.788613 22.5388V22.5388Z" stroke="white" stroke-width="0.542257"/>
<path d="M0.788574 18.5693C0.788574 18.2845 0.872891 18.0061 1.03086 17.7693C1.18883 17.5325 1.41336 17.348 1.67606 17.239C1.93876 17.13 2.22782 17.1015 2.5067 17.1571C2.78557 17.2126 3.04174 17.3498 3.24279 17.5511C3.44385 17.7525 3.58078 18.0091 3.63625 18.2884C3.69172 18.5677 3.66325 18.8572 3.55444 19.1203C3.44563 19.3835 3.26136 19.6083 3.02494 19.7666C2.78852 19.9248 2.51056 20.0092 2.22622 20.0092C2.03743 20.0092 1.85048 19.972 1.67606 19.8996C1.50164 19.8273 1.34315 19.7212 1.20965 19.5875C1.07615 19.4538 0.970257 19.295 0.898008 19.1203C0.82576 18.9456 0.788574 18.7584 0.788574 18.5693Z" fill="white"/>
<path d="M2.22964 20.0092C3.02363 20.0092 3.66729 19.3646 3.66729 18.5693C3.66729 17.7741 3.02363 17.1294 2.22964 17.1294C1.43565 17.1294 0.791992 17.7741 0.791992 18.5693C0.791992 19.3646 1.43565 20.0092 2.22964 20.0092Z" stroke="white" stroke-width="0.542257"/>
<path d="M0.788575 14.6199C0.788808 14.3352 0.873322 14.0569 1.03143 13.8202C1.18955 13.5836 1.41416 13.3992 1.67687 13.2904C1.93959 13.1816 2.22862 13.1533 2.50742 13.209C2.78622 13.2647 3.04227 13.4019 3.24321 13.6033C3.44415 13.8047 3.58096 14.0613 3.63633 14.3406C3.69171 14.6199 3.66317 14.9093 3.55433 15.1724C3.44548 15.4354 3.26121 15.6602 3.02482 15.8184C2.78842 15.9766 2.51051 16.061 2.22622 16.061C2.03733 16.061 1.85029 16.0237 1.67579 15.9513C1.50129 15.8788 1.34275 15.7727 1.20924 15.6388C1.07572 15.505 0.969851 15.3461 0.897671 15.1713C0.825492 14.9965 0.78842 14.8091 0.788575 14.6199Z" fill="white"/>
<path d="M0.788575 14.6199C0.788808 14.3352 0.873322 14.0569 1.03143 13.8202C1.18955 13.5836 1.41416 13.3992 1.67687 13.2904C1.93959 13.1816 2.22862 13.1533 2.50742 13.209C2.78622 13.2647 3.04227 13.4019 3.24321 13.6033C3.44415 13.8047 3.58096 14.0613 3.63633 14.3406C3.69171 14.6199 3.66317 14.9093 3.55433 15.1724C3.44548 15.4354 3.26121 15.6602 3.02482 15.8184C2.78842 15.9766 2.51051 16.061 2.22622 16.061C2.03733 16.061 1.85029 16.0237 1.67579 15.9513C1.50129 15.8788 1.34275 15.7727 1.20924 15.6388C1.07572 15.505 0.969851 15.3461 0.897671 15.1713C0.825492 14.9965 0.78842 14.8091 0.788575 14.6199V14.6199Z" stroke="white" stroke-width="0.542257"/>
<path d="M2.22964 12.1115C3.02363 12.1115 3.66729 11.4573 3.66729 10.6504C3.66729 9.84339 3.02363 9.18921 2.22964 9.18921C1.43565 9.18921 0.791992 9.84339 0.791992 10.6504C0.791992 11.4573 1.43565 12.1115 2.22964 12.1115Z" stroke="white" stroke-width="0.542257"/>
<path d="M0.788574 6.68088C0.788574 6.3961 0.872891 6.1177 1.03086 5.88091C1.18883 5.64412 1.41336 5.45956 1.67606 5.35057C1.93876 5.24159 2.22782 5.21308 2.5067 5.26864C2.78557 5.32419 3.04174 5.46133 3.24279 5.66271C3.44385 5.86409 3.58078 6.12065 3.63625 6.39997C3.69172 6.67929 3.66325 6.96881 3.55444 7.23192C3.44563 7.49503 3.26136 7.71991 3.02494 7.87813C2.78852 8.03635 2.51056 8.1208 2.22622 8.1208C2.03743 8.1208 1.85048 8.08356 1.67606 8.01119C1.50164 7.93883 1.34315 7.83277 1.20965 7.69906C1.07615 7.56535 0.970257 7.40662 0.898008 7.23192C0.82576 7.05722 0.788574 6.86998 0.788574 6.68088Z" fill="white"/>
<path d="M2.22964 8.1208C3.02363 8.1208 3.66729 7.47613 3.66729 6.68088C3.66729 5.88564 3.02363 5.24097 2.22964 5.24097C1.43565 5.24097 0.791992 5.88564 0.791992 6.68088C0.791992 7.47613 1.43565 8.1208 2.22964 8.1208Z" stroke="white" stroke-width="0.542257"/>
<path d="M0.788575 2.73264C0.788576 2.448 0.872804 2.16975 1.03062 1.93303C1.18843 1.69632 1.41276 1.51176 1.67525 1.40267C1.93774 1.29358 2.22662 1.26486 2.5054 1.32014C2.78418 1.37541 3.04035 1.5122 3.24155 1.71322C3.44275 1.91424 3.57995 2.17048 3.63582 2.44956C3.69169 2.72864 3.66372 3.01805 3.55545 3.28122C3.44718 3.54439 3.26346 3.76952 3.02751 3.92817C2.79155 4.08681 2.51394 4.17185 2.22976 4.17255C2.04062 4.17317 1.85323 4.13638 1.67832 4.06428C1.50342 3.99218 1.34446 3.8862 1.21055 3.75241C1.07665 3.61863 0.970444 3.45967 0.89803 3.28467C0.825615 3.10967 0.788419 2.92207 0.788575 2.73264Z" fill="white"/>
<path d="M3.62865 3.06285C3.81104 2.28887 3.33245 1.51335 2.55969 1.33067C1.78693 1.148 1.01263 1.62734 0.830242 2.40132C0.647855 3.1753 1.12645 3.95082 1.89921 4.1335C2.67196 4.31617 3.44627 3.83683 3.62865 3.06285Z" stroke="white" stroke-width="0.542257"/>
<path d="M36.8559 11.1493H37.7743L37.9274 8.79069H37.1467V3.48151H36.0482V8.79423H33.0905V3.48151H31.9825V9.79545H36.8559V11.1493ZM38.9129 9.79545H39.9573L43.1363 5.19621V9.79545H44.2267V3.48151H43.1905L40.0032 8.09019V3.48151H38.9129V9.79545ZM48.6256 10.0396H49.7241V9.35321C51.7151 9.35321 52.8761 8.19868 52.8761 6.59367C52.8761 4.98865 51.6987 3.85063 49.7241 3.85063V3.26099H48.6267V3.85063C46.6545 3.85063 45.4747 4.97804 45.4747 6.58423C45.4747 8.19043 46.6451 9.35321 48.6267 9.35321L48.6256 10.0396ZM48.6256 8.37086C47.3834 8.37086 46.6086 7.72107 46.6086 6.60192C46.6086 5.50164 47.3834 4.8436 48.6256 4.8436V8.37086ZM49.7241 8.37086V4.8436C50.9757 4.8436 51.7411 5.50164 51.7411 6.60192C51.7411 7.72107 50.9757 8.37086 49.7241 8.37086ZM54.1195 9.79545H55.2274V7.76588H56.4802C57.8673 7.76588 59.0023 7.02647 59.0023 5.61014C59.0023 4.31999 58.0745 3.48741 56.6062 3.48741H54.1206L54.1195 9.79545ZM55.2274 6.76466V4.49217H56.5156C57.3398 4.49217 57.8743 4.87898 57.8743 5.61957C57.8743 6.29531 57.3527 6.76466 56.5156 6.76466H55.2274ZM63.1433 9.90394C65.079 9.90394 66.4484 8.41567 66.4484 6.63848C66.4484 4.86129 65.0991 3.37302 63.1681 3.37302C61.2371 3.37302 59.863 4.86129 59.863 6.63848C59.863 8.43336 61.2135 9.90394 63.1504 9.90394H63.1433ZM63.1681 8.88503C61.9165 8.88503 61.0251 7.86494 61.0251 6.64438C61.0251 5.39904 61.8988 4.40372 63.1445 4.40372C64.3902 4.40372 65.2874 5.42381 65.2874 6.64438C65.2874 7.88971 64.4138 8.88503 63.1681 8.88503ZM67.7942 9.79545H70.7037C72.1083 9.79545 73.0362 9.19165 73.0362 8.06425C73.0362 7.18921 72.5228 6.76702 71.7845 6.5123C72.2555 6.26818 72.6853 5.86251 72.6853 5.1054C72.6914 4.90879 72.6569 4.71303 72.584 4.53039C72.5111 4.34775 72.4012 4.18217 72.2614 4.04404C71.9011 3.68317 71.3336 3.48505 70.613 3.48505H67.7871L67.7942 9.79545ZM68.8833 6.13964V4.46504H70.4682C71.1746 4.46504 71.5761 4.77166 71.5761 5.26696C71.5761 5.85661 71.0993 6.142 70.3869 6.142L68.8833 6.13964ZM68.8833 8.80956V7.08071H70.6401C71.5137 7.08071 71.9353 7.39676 71.9353 7.92863C71.9353 8.51827 71.4761 8.81192 70.7201 8.81192L68.8833 8.80956ZM74.2995 9.79309H76.8263C78.2852 9.79309 79.2036 8.99942 79.2036 7.72697C79.2036 6.45451 78.2498 5.75519 76.8369 5.75519H75.3863V3.48151H74.2878L74.2995 9.79309ZM75.3981 8.8013V6.71985H76.791C77.6293 6.71985 78.1062 7.07364 78.1062 7.72107C78.1062 8.42865 77.6352 8.80366 76.811 8.80366L75.3981 8.8013ZM79.9642 9.79309H81.0627V3.48151H79.9642V9.79309ZM82.6817 9.79309H87.4009V8.8013H83.7732V7.10784H86.9346V6.11487H83.7732V4.4733H87.3396V3.48151H82.6699L82.6817 9.79309ZM33.532 21.5766H34.6494V16.291H36.651V15.2626H31.5327V16.291H33.5344L33.532 21.5766ZM37.8226 21.5766H38.9305V19.5529H40.1822C41.5692 19.5529 42.7042 18.8135 42.7042 17.3972C42.7042 16.107 41.7764 15.2744 40.3081 15.2744H37.8226V21.5766ZM38.9305 18.5458V16.2733H40.2187C41.0429 16.2733 41.5786 16.6601 41.5786 17.4007C41.5786 18.0764 41.0558 18.5458 40.2187 18.5458H38.9305ZM43.2988 21.5766H44.4339L45.0815 20.0518H48.0627L48.7021 21.5766H49.8795L47.1055 15.2178H46.0788L43.2988 21.5766ZM45.4877 19.0694L46.5662 16.5434L47.6565 19.0694H45.4877ZM50.9545 21.5766H52.0613V18.9161H55.0697V21.5766H56.1776V15.2626H55.0697V17.8878H52.0613V15.2626H50.9545V21.5766ZM60.7272 21.6851C61.9047 21.6851 62.6276 21.2523 63.2846 20.5659L62.5782 19.8454C62.0377 20.3501 61.5432 20.6709 60.7684 20.6709C59.5616 20.6709 58.6879 19.6602 58.6879 18.4243C58.6879 17.1884 59.5616 16.1837 60.7684 16.1837C61.489 16.1837 62.0295 16.4997 62.5346 16.9691L63.2411 16.1436C62.6382 15.5657 61.9353 15.16 60.7684 15.16C58.8598 15.16 57.5176 16.6306 57.5176 18.4255C57.5176 20.2569 58.8869 21.691 60.7237 21.691L60.7272 21.6851ZM67.2114 21.8266H68.3099V21.1402C70.2998 21.1402 71.4619 19.9857 71.4619 18.3807C71.4619 16.7757 70.2845 15.6388 68.3099 15.6388V15.0492H67.2114V15.6388C65.238 15.6388 64.0582 16.7651 64.0582 18.3713C64.0582 19.9775 65.2356 21.1402 67.2114 21.1402V21.8266ZM67.2114 20.1579C65.968 20.1579 65.1933 19.5081 65.1933 18.389C65.1933 17.2887 65.968 16.6306 67.2114 16.6306V20.1579ZM68.3099 20.1579V16.6247C69.5615 16.6247 70.3269 17.2828 70.3269 18.3831C70.3269 19.5022 69.5615 20.152 68.3099 20.152V20.1579ZM75.7125 21.6851C77.6493 21.6851 79.0175 20.1968 79.0175 18.4196C79.0175 16.6424 77.667 15.1542 75.7301 15.1542C73.7932 15.1542 72.4251 16.6424 72.4251 18.4196C72.4251 20.2145 73.7768 21.6851 75.7125 21.6851ZM75.7301 20.6662C74.4785 20.6662 73.5872 19.6461 73.5872 18.4196C73.5872 17.1743 74.4609 16.179 75.7066 16.179C76.9523 16.179 77.8507 17.199 77.8507 18.4196C77.8507 19.6649 76.977 20.6662 75.7242 20.6662H75.7301ZM80.3586 21.5766H81.4666V19.5529H82.7135C84.1005 19.5529 85.2356 18.8135 85.2356 17.3972C85.2356 16.107 84.3078 15.2744 82.8395 15.2744H80.3586V21.5766ZM81.4666 18.5458V16.2733H82.7547C83.5789 16.2733 84.1147 16.6601 84.1147 17.4007C84.1147 18.0764 83.5919 18.5458 82.7547 18.5458H81.4666ZM86.3742 21.5766H87.4645V17.067L89.4343 20.0246H89.4696L91.4607 17.0469V21.5754H92.5686V15.2626H91.3912L89.472 18.2486L87.5539 15.2626H86.3765L86.3742 21.5766ZM93.6531 21.5766H94.7881L95.4357 20.0518H98.417L99.0563 21.5766H100.234L97.4597 15.2178H96.433L93.6531 21.5766ZM95.8407 19.0694L96.9216 16.5434L98.0119 19.0694H95.8407ZM106.181 22.9304H107.099L107.252 20.5718H106.469V15.265H105.371V20.5718H102.417V15.265H101.309V21.5789H106.181V22.9304ZM108.239 21.5766H109.284L112.463 16.9773V21.5766H113.553V15.2626H112.517L109.324 19.8725V15.2626H108.233L108.239 21.5766ZM115.186 21.5766H116.23L119.409 16.9773V21.5766H120.5V15.2626H119.464L116.27 19.8725V15.2626H115.18L115.186 21.5766Z" fill="white"/>
</svg>
