<svg width="76" height="76" viewBox="0 0 76 76" fill="none" xmlns="http://www.w3.org/2000/svg">
<rect width="76" height="76" rx="38" fill="white"/>
<g clip-path="url(#clip0)">
<path d="M39.375 59.3125H18.0625C17.3062 59.3125 16.6875 58.6938 16.6875 57.9375V18.0625C16.6875 17.3062 17.3062 16.6875 18.0625 16.6875H47.625C48.3813 16.6875 49 17.3062 49 18.0625V33.875" stroke="url(#paint0_linear)" stroke-width="1.39833" stroke-miterlimit="10" stroke-linecap="round" stroke-linejoin="round"/>
<path d="M21.5 21.5V28.375H44.1875V21.5" stroke="url(#paint1_linear)" stroke-width="1.39833" stroke-miterlimit="10" stroke-linecap="round" stroke-linejoin="round"/>
<path d="M35.25 55.1875H22.875C22.1187 55.1875 21.5 54.5688 21.5 53.8125V33.875C21.5 33.1188 22.1187 32.5 22.875 32.5H42.8125C43.5688 32.5 44.1875 33.1188 44.1875 33.875" stroke="url(#paint2_linear)" stroke-width="1.39833" stroke-miterlimit="10" stroke-linecap="round" stroke-linejoin="round"/>
<path d="M25.625 40.0625H35.25" stroke="url(#paint3_linear)" stroke-width="1.39833" stroke-miterlimit="10" stroke-linecap="round" stroke-linejoin="round"/>
<path d="M29.0625 32.5V55.1875" stroke="url(#paint4_linear)" stroke-width="1.39833" stroke-miterlimit="10" stroke-linecap="round" stroke-linejoin="round"/>
<path d="M36.625 32.5V34.5625" stroke="url(#paint5_linear)" stroke-width="1.39833" stroke-miterlimit="10" stroke-linecap="round" stroke-linejoin="round"/>
<path d="M25.625 47.625H32.5" stroke="url(#paint6_linear)" stroke-width="1.39833" stroke-miterlimit="10" stroke-linecap="round" stroke-linejoin="round"/>
<path d="M38 20.125H39.375" stroke="url(#paint7_linear)" stroke-width="1.39833" stroke-miterlimit="10" stroke-linecap="round" stroke-linejoin="round"/>
<path d="M38 25.625H39.375" stroke="url(#paint8_linear)" stroke-width="1.39833" stroke-miterlimit="10" stroke-linecap="round" stroke-linejoin="round"/>
<path d="M36.625 20.8125V22.1875" stroke="url(#paint9_linear)" stroke-width="1.39833" stroke-miterlimit="10" stroke-linecap="round" stroke-linejoin="round"/>
<path d="M40.75 20.8125V22.1875" stroke="url(#paint10_linear)" stroke-width="1.39833" stroke-miterlimit="10" stroke-linecap="round" stroke-linejoin="round"/>
<path d="M36.625 23.5625V24.9375" stroke="url(#paint11_linear)" stroke-width="1.39833" stroke-miterlimit="10" stroke-linecap="round" stroke-linejoin="round"/>
<path d="M40.75 23.5625V24.9375" stroke="url(#paint12_linear)" stroke-width="1.39833" stroke-miterlimit="10" stroke-linecap="round" stroke-linejoin="round"/>
<path d="M49.2062 59.3124L48.7937 58.6936L44.2562 57.3186C44.0499 57.2499 43.8437 57.1811 43.7062 57.1124C41.8499 56.1499 40.3374 54.6374 39.1687 52.9186L37.1062 49.7561C36.4874 48.8624 36.1437 48.1061 37.0374 47.4874C37.9999 46.8686 40.4062 47.4186 41.0249 48.3124L42.3312 50.3061L33.9437 37.7936C33.3249 36.8999 33.5999 35.6624 34.5624 35.0436C35.5249 34.4249 36.7624 34.6311 37.3124 35.5249L42.0562 42.6749L41.1624 41.2999C40.5437 40.4061 40.8187 39.1686 41.7812 38.5499C42.7437 37.9311 43.9812 38.1374 44.5312 39.0311L45.9062 41.0936L45.4249 40.3374C44.8062 39.4437 45.0812 38.2061 46.0437 37.5874C47.0062 36.9686 48.2437 37.1749 48.7937 38.0686L50.1687 40.1999L49.6187 39.3749C48.9999 38.4811 49.2749 37.2436 50.2374 36.6249C51.1999 36.0061 52.4374 36.2124 52.9874 37.1061L56.0124 41.6436C57.5249 43.9811 58.4874 46.5249 58.9687 49.2749C59.0374 49.5499 59.0374 49.8936 59.0374 50.1686L58.8999 51.9561L59.3124 52.5749" stroke="url(#paint13_linear)" stroke-width="1.39833" stroke-miterlimit="10" stroke-linecap="round" stroke-linejoin="round"/>
</g>
<defs>
<linearGradient id="paint0_linear" x1="32.8438" y1="16.6875" x2="32.8438" y2="59.3125" gradientUnits="userSpaceOnUse">
<stop stop-color="#CA9147"/>
<stop offset="1" stop-color="#D1964A"/>
</linearGradient>
<linearGradient id="paint1_linear" x1="32.8438" y1="21.5" x2="32.8438" y2="28.375" gradientUnits="userSpaceOnUse">
<stop stop-color="#CA9147"/>
<stop offset="1" stop-color="#D1964A"/>
</linearGradient>
<linearGradient id="paint2_linear" x1="32.8438" y1="32.5" x2="32.8438" y2="55.1875" gradientUnits="userSpaceOnUse">
<stop stop-color="#CA9147"/>
<stop offset="1" stop-color="#D1964A"/>
</linearGradient>
<linearGradient id="paint3_linear" x1="30.4375" y1="40.0625" x2="30.4375" y2="41.0625" gradientUnits="userSpaceOnUse">
<stop stop-color="#CA9147"/>
<stop offset="1" stop-color="#D1964A"/>
</linearGradient>
<linearGradient id="paint4_linear" x1="29.5625" y1="32.5" x2="29.5625" y2="55.1875" gradientUnits="userSpaceOnUse">
<stop stop-color="#CA9147"/>
<stop offset="1" stop-color="#D1964A"/>
</linearGradient>
<linearGradient id="paint5_linear" x1="37.125" y1="32.5" x2="37.125" y2="34.5625" gradientUnits="userSpaceOnUse">
<stop stop-color="#CA9147"/>
<stop offset="1" stop-color="#D1964A"/>
</linearGradient>
<linearGradient id="paint6_linear" x1="29.0625" y1="47.625" x2="29.0625" y2="48.625" gradientUnits="userSpaceOnUse">
<stop stop-color="#CA9147"/>
<stop offset="1" stop-color="#D1964A"/>
</linearGradient>
<linearGradient id="paint7_linear" x1="38.6875" y1="20.125" x2="38.6875" y2="21.125" gradientUnits="userSpaceOnUse">
<stop stop-color="#CA9147"/>
<stop offset="1" stop-color="#D1964A"/>
</linearGradient>
<linearGradient id="paint8_linear" x1="38.6875" y1="25.625" x2="38.6875" y2="26.625" gradientUnits="userSpaceOnUse">
<stop stop-color="#CA9147"/>
<stop offset="1" stop-color="#D1964A"/>
</linearGradient>
<linearGradient id="paint9_linear" x1="37.125" y1="20.8125" x2="37.125" y2="22.1875" gradientUnits="userSpaceOnUse">
<stop stop-color="#CA9147"/>
<stop offset="1" stop-color="#D1964A"/>
</linearGradient>
<linearGradient id="paint10_linear" x1="41.25" y1="20.8125" x2="41.25" y2="22.1875" gradientUnits="userSpaceOnUse">
<stop stop-color="#CA9147"/>
<stop offset="1" stop-color="#D1964A"/>
</linearGradient>
<linearGradient id="paint11_linear" x1="37.125" y1="23.5625" x2="37.125" y2="24.9375" gradientUnits="userSpaceOnUse">
<stop stop-color="#CA9147"/>
<stop offset="1" stop-color="#D1964A"/>
</linearGradient>
<linearGradient id="paint12_linear" x1="41.25" y1="23.5625" x2="41.25" y2="24.9375" gradientUnits="userSpaceOnUse">
<stop stop-color="#CA9147"/>
<stop offset="1" stop-color="#D1964A"/>
</linearGradient>
<linearGradient id="paint13_linear" x1="46.4628" y1="34.688" x2="46.4628" y2="59.3124" gradientUnits="userSpaceOnUse">
<stop stop-color="#CA9147"/>
<stop offset="1" stop-color="#D1964A"/>
</linearGradient>
<clipPath id="clip0">
<rect width="44" height="44" fill="white" transform="translate(16 16)"/>
</clipPath>
</defs>
</svg>
