<svg width="76" height="76" viewBox="0 0 76 76" fill="none" xmlns="http://www.w3.org/2000/svg">
<rect width="76" height="76" rx="38" fill="white"/>
<g clip-path="url(#clip0)">
<path d="M32.5 57.25V57.9375L30.4375 59.3125H45.5625L43.5 57.9375V57.25" stroke="url(#paint0_linear)" stroke-width="1.39833" stroke-miterlimit="10" stroke-linecap="square" stroke-linejoin="round"/>
<path d="M59.3125 35.25V52.4375C59.3125 53.6063 58.4188 54.5 57.25 54.5H18.75C17.5812 54.5 16.6875 53.6063 16.6875 52.4375V22.1875C16.6875 21.0187 17.5812 20.125 18.75 20.125H33.875" stroke="url(#paint1_linear)" stroke-width="1.39833" stroke-miterlimit="10" stroke-linecap="square" stroke-linejoin="round"/>
<path d="M55.1875 35.25V47.625H20.8125V24.25H33.875" stroke="url(#paint2_linear)" stroke-width="1.39833" stroke-miterlimit="10" stroke-linecap="square" stroke-linejoin="round"/>
<path d="M38 24.9375V18.0625C38 17.3063 38.6187 16.6875 39.375 16.6875H57.9375C58.6938 16.6875 59.3125 17.3063 59.3125 18.0625V29.75C59.3125 30.5063 58.6938 31.125 57.9375 31.125H48.3125L42.8125 35.9375V31.125H41.4375" stroke="url(#paint3_linear)" stroke-width="1.39833" stroke-miterlimit="10" stroke-linecap="square" stroke-linejoin="round"/>
<path d="M43.8442 24.9375C44.4138 24.9375 44.8755 24.4758 44.8755 23.9063C44.8755 23.3367 44.4138 22.875 43.8442 22.875C43.2747 22.875 42.813 23.3367 42.813 23.9063C42.813 24.4758 43.2747 24.9375 43.8442 24.9375Z" fill="url(#paint4_linear)"/>
<path d="M48.6567 24.9375C49.2263 24.9375 49.688 24.4758 49.688 23.9063C49.688 23.3367 49.2263 22.875 48.6567 22.875C48.0872 22.875 47.6255 23.3367 47.6255 23.9063C47.6255 24.4758 48.0872 24.9375 48.6567 24.9375Z" fill="#1822B7"/>
<path d="M48.6567 24.9375C49.2263 24.9375 49.688 24.4758 49.688 23.9063C49.688 23.3367 49.2263 22.875 48.6567 22.875C48.0872 22.875 47.6255 23.3367 47.6255 23.9063C47.6255 24.4758 48.0872 24.9375 48.6567 24.9375Z" fill="url(#paint5_linear)"/>
<path d="M53.4687 24.9375C54.0383 24.9375 54.5 24.4758 54.5 23.9063C54.5 23.3367 54.0383 22.875 53.4687 22.875C52.8992 22.875 52.4375 23.3367 52.4375 23.9063C52.4375 24.4758 52.8992 24.9375 53.4687 24.9375Z" fill="#1822B7"/>
<path d="M53.4687 24.9375C54.0383 24.9375 54.5 24.4758 54.5 23.9063C54.5 23.3367 54.0383 22.875 53.4687 22.875C52.8992 22.875 52.4375 23.3367 52.4375 23.9063C52.4375 24.4758 52.8992 24.9375 53.4687 24.9375Z" fill="url(#paint6_linear)"/>
<path d="M22.875 46.9375C22.875 46.9375 23.0812 43.4312 25.625 42.125L30.4375 40.0625C30.4375 40.0625 31.8125 40.75 33.875 40.75C35.9375 40.75 37.3125 40.0625 37.3125 40.0625L42.125 42.125C44.6688 43.4312 44.875 46.9375 44.875 46.9375" stroke="url(#paint7_linear)" stroke-width="1.39833" stroke-miterlimit="10" stroke-linecap="round" stroke-linejoin="round"/>
<path d="M35.9374 37.3125C37.9999 35.9375 37.9999 35.0438 38.2062 33.05C38.3437 31.95 38.4124 30.7813 37.8624 29.8188C37.3812 28.925 36.4874 28.3062 35.5249 27.9625C35.0437 27.7562 34.4249 27.6875 33.8749 27.6875C33.3249 27.6875 32.7062 27.7562 32.2249 27.9625C31.2624 28.3062 30.3687 28.925 29.8874 29.8188C29.3374 30.7813 29.4062 31.95 29.5437 33.05C29.7499 35.0438 29.7499 35.9375 31.8124 37.3125" stroke="url(#paint8_linear)" stroke-width="1.39833" stroke-miterlimit="10" stroke-linecap="round" stroke-linejoin="round"/>
<path d="M35.25 40.75C35.9375 41.4375 35.6625 43.4313 35.25 44.1875C35.25 44.1875 35.9375 45.7688 35.9375 46.9375" stroke="url(#paint9_linear)" stroke-width="1.39833" stroke-miterlimit="10" stroke-linecap="round" stroke-linejoin="round"/>
<path d="M31.8125 46.9375C31.8125 45.7688 32.5 44.1875 32.5 44.1875C32.0875 43.4313 31.8125 41.4375 32.5 40.75" stroke="url(#paint10_linear)" stroke-width="1.39833" stroke-miterlimit="10" stroke-linecap="round" stroke-linejoin="round"/>
</g>
<defs>
<linearGradient id="paint0_linear" x1="38" y1="57.25" x2="38" y2="59.3125" gradientUnits="userSpaceOnUse">
<stop stop-color="#CA9147"/>
<stop offset="1" stop-color="#D1964A"/>
</linearGradient>
<linearGradient id="paint1_linear" x1="38" y1="20.125" x2="38" y2="54.5" gradientUnits="userSpaceOnUse">
<stop stop-color="#CA9147"/>
<stop offset="1" stop-color="#D1964A"/>
</linearGradient>
<linearGradient id="paint2_linear" x1="38" y1="24.25" x2="38" y2="47.625" gradientUnits="userSpaceOnUse">
<stop stop-color="#CA9147"/>
<stop offset="1" stop-color="#D1964A"/>
</linearGradient>
<linearGradient id="paint3_linear" x1="48.6562" y1="16.6875" x2="48.6562" y2="35.9375" gradientUnits="userSpaceOnUse">
<stop stop-color="#CA9147"/>
<stop offset="1" stop-color="#D1964A"/>
</linearGradient>
<linearGradient id="paint4_linear" x1="43.8442" y1="22.875" x2="43.8442" y2="24.9375" gradientUnits="userSpaceOnUse">
<stop stop-color="#D1964A"/>
<stop offset="1" stop-color="#CA9147"/>
</linearGradient>
<linearGradient id="paint5_linear" x1="48.6567" y1="22.875" x2="48.6567" y2="24.9375" gradientUnits="userSpaceOnUse">
<stop stop-color="#D1964A"/>
<stop offset="1" stop-color="#CA9147"/>
</linearGradient>
<linearGradient id="paint6_linear" x1="53.4687" y1="22.875" x2="53.4687" y2="24.9375" gradientUnits="userSpaceOnUse">
<stop stop-color="#D1964A"/>
<stop offset="1" stop-color="#CA9147"/>
</linearGradient>
<linearGradient id="paint7_linear" x1="33.875" y1="40.0625" x2="33.875" y2="46.9375" gradientUnits="userSpaceOnUse">
<stop stop-color="#CA9147"/>
<stop offset="1" stop-color="#D1964A"/>
</linearGradient>
<linearGradient id="paint8_linear" x1="33.8749" y1="27.6875" x2="33.8749" y2="37.3125" gradientUnits="userSpaceOnUse">
<stop stop-color="#CA9147"/>
<stop offset="1" stop-color="#D1964A"/>
</linearGradient>
<linearGradient id="paint9_linear" x1="35.5938" y1="40.75" x2="35.5938" y2="46.9375" gradientUnits="userSpaceOnUse">
<stop stop-color="#CA9147"/>
<stop offset="1" stop-color="#D1964A"/>
</linearGradient>
<linearGradient id="paint10_linear" x1="32.1562" y1="40.75" x2="32.1562" y2="46.9375" gradientUnits="userSpaceOnUse">
<stop stop-color="#CA9147"/>
<stop offset="1" stop-color="#D1964A"/>
</linearGradient>
<clipPath id="clip0">
<rect width="44" height="44" fill="white" transform="translate(16 16)"/>
</clipPath>
</defs>
</svg>
