<svg width="76" height="76" viewBox="0 0 76 76" fill="none" xmlns="http://www.w3.org/2000/svg">
<rect width="76" height="76" rx="38" fill="white"/>
<g clip-path="url(#clip0)">
<path d="M27.1203 40.0625C26.1578 37.9656 25.625 35.6453 25.625 33.1875C25.625 24.0781 33.0156 16.6875 42.125 16.6875C51.2344 16.6875 58.625 24.0781 58.625 33.1875C58.625 35.3703 58.1953 37.4672 57.4219 39.375" stroke="url(#paint0_linear)" stroke-width="1.39833" stroke-miterlimit="10" stroke-linecap="round" stroke-linejoin="round"/>
<path d="M32.5347 24.6626C35.6972 25.1782 38.9112 25.3673 42.1253 25.3673C45.3222 25.3673 48.5534 25.1782 51.7159 24.6626" stroke="url(#paint1_linear)" stroke-width="1.39833" stroke-miterlimit="10" stroke-linecap="round" stroke-linejoin="round"/>
<path d="M42.125 20.8125V38.6875" stroke="url(#paint2_linear)" stroke-width="1.39833" stroke-miterlimit="10" stroke-linecap="round" stroke-linejoin="round"/>
<path d="M29.0625 33.875H55.1875" stroke="url(#paint3_linear)" stroke-width="1.39833" stroke-miterlimit="10" stroke-linecap="round" stroke-linejoin="round"/>
<path d="M37.2263 21.5C34.5622 24.8344 33.0669 29.1484 33.0669 33.875C33.0669 35.5422 33.256 37.1578 33.5997 38.6875" stroke="url(#paint4_linear)" stroke-width="1.39833" stroke-miterlimit="10" stroke-linecap="round" stroke-linejoin="round"/>
<path d="M47.0063 21.5C49.6876 24.8344 51.1657 29.1484 51.1657 33.875C51.1657 35.5422 50.9767 37.1578 50.6329 38.6875" stroke="url(#paint5_linear)" stroke-width="1.39833" stroke-miterlimit="10" stroke-linecap="round" stroke-linejoin="round"/>
<path d="M16.6875 49L20.8125 46.25L27.6875 57.25L24.25 59.3125" stroke="url(#paint6_linear)" stroke-width="1.39833" stroke-miterlimit="10" stroke-linecap="round" stroke-linejoin="round"/>
<path d="M34.5626 47.625H42.8126C44.3251 47.625 45.5626 46.3875 45.5626 44.875C45.5626 43.3625 44.3251 42.125 42.8126 42.125H31.6923C30.8845 42.125 30.0767 42.3656 29.4063 42.8125L21.8267 47.8656" stroke="url(#paint7_linear)" stroke-width="1.39833" stroke-miterlimit="10" stroke-linecap="round" stroke-linejoin="round"/>
<path d="M43.7406 47.4701L55.5141 42.3655C56.9062 41.7811 58.5219 42.4514 59.1062 43.8608C59.6906 45.253 59.0203 46.8686 57.6109 47.453L45.4766 53.2795C44.6344 53.6404 43.7234 53.8295 42.7953 53.8295H32.0875C31.2797 53.8295 30.4891 54.0701 29.8187 54.517L27.0859 56.3217" stroke="url(#paint8_linear)" stroke-width="1.39833" stroke-miterlimit="10" stroke-linecap="round" stroke-linejoin="round"/>
</g>
<defs>
<linearGradient id="paint0_linear" x1="42.125" y1="16.6875" x2="42.125" y2="40.0625" gradientUnits="userSpaceOnUse">
<stop stop-color="#CA9147"/>
<stop offset="1" stop-color="#D1964A"/>
</linearGradient>
<linearGradient id="paint1_linear" x1="42.1253" y1="24.6626" x2="42.1253" y2="25.3673" gradientUnits="userSpaceOnUse">
<stop stop-color="#CA9147"/>
<stop offset="1" stop-color="#D1964A"/>
</linearGradient>
<linearGradient id="paint2_linear" x1="42.625" y1="20.8125" x2="42.625" y2="38.6875" gradientUnits="userSpaceOnUse">
<stop stop-color="#CA9147"/>
<stop offset="1" stop-color="#D1964A"/>
</linearGradient>
<linearGradient id="paint3_linear" x1="42.125" y1="33.875" x2="42.125" y2="34.875" gradientUnits="userSpaceOnUse">
<stop stop-color="#CA9147"/>
<stop offset="1" stop-color="#D1964A"/>
</linearGradient>
<linearGradient id="paint4_linear" x1="35.1466" y1="21.5" x2="35.1466" y2="38.6875" gradientUnits="userSpaceOnUse">
<stop stop-color="#CA9147"/>
<stop offset="1" stop-color="#D1964A"/>
</linearGradient>
<linearGradient id="paint5_linear" x1="49.086" y1="21.5" x2="49.086" y2="38.6875" gradientUnits="userSpaceOnUse">
<stop stop-color="#CA9147"/>
<stop offset="1" stop-color="#D1964A"/>
</linearGradient>
<linearGradient id="paint6_linear" x1="22.1875" y1="46.25" x2="22.1875" y2="59.3125" gradientUnits="userSpaceOnUse">
<stop stop-color="#CA9147"/>
<stop offset="1" stop-color="#D1964A"/>
</linearGradient>
<linearGradient id="paint7_linear" x1="33.6946" y1="42.125" x2="33.6946" y2="47.8656" gradientUnits="userSpaceOnUse">
<stop stop-color="#CA9147"/>
<stop offset="1" stop-color="#D1964A"/>
</linearGradient>
<linearGradient id="paint8_linear" x1="43.2017" y1="42.1543" x2="43.2017" y2="56.3217" gradientUnits="userSpaceOnUse">
<stop stop-color="#CA9147"/>
<stop offset="1" stop-color="#D1964A"/>
</linearGradient>
<clipPath id="clip0">
<rect width="44" height="44" fill="white" transform="translate(16 16)"/>
</clipPath>
</defs>
</svg>
