<svg width="284" height="224" viewBox="0 0 284 224" fill="none" xmlns="http://www.w3.org/2000/svg">
<path d="M0.000597656 21.6757C0.0645379 17.3389 1.40896 13.1177 3.86489 9.54276C6.32083 5.9678 9.77868 3.19854 13.8039 1.58303C17.8291 -0.0324716 22.242 -0.422135 26.4879 0.463012C30.7339 1.34816 34.6236 3.46862 37.668 6.5579C40.7124 9.64717 42.7757 13.5674 43.5986 17.8259C44.4215 22.0844 43.9673 26.4911 42.2931 30.4923C40.6189 34.4934 37.7993 37.9103 34.1888 40.3137C30.5783 42.7171 26.3379 43.9995 22.0006 44C19.0902 43.9788 16.2125 43.3845 13.5318 42.2511C10.851 41.1177 8.41981 39.4674 6.3769 37.3944C4.334 35.3214 2.71942 32.8662 1.62537 30.1692C0.531319 27.4722 -0.0207759 24.5861 0.000597656 21.6757Z" fill="#1822B7" fill-opacity="0.15"/>
<path d="M59.9983 22C59.9983 17.6488 61.2886 13.3953 63.706 9.77745C66.1233 6.15956 69.5593 3.33979 73.5793 1.67466C77.5992 0.00953314 82.0227 -0.426142 86.2903 0.422734C90.5579 1.27161 94.4779 3.36689 97.5547 6.44365C100.631 9.52041 102.727 13.4404 103.576 17.708C104.424 21.9756 103.989 26.3991 102.324 30.4191C100.659 34.439 97.8387 37.875 94.2208 40.2924C90.603 42.7098 86.3495 44 81.9983 44C76.1635 44 70.5677 41.6822 66.4419 37.5564C62.3161 33.4306 59.9983 27.8348 59.9983 22Z" fill="#1822B7" fill-opacity="0.15"/>
<path d="M120.998 22C120.998 17.8466 122.23 13.7864 124.537 10.333C126.845 6.87959 130.125 4.18798 133.962 2.59854C137.799 1.0091 142.022 0.593229 146.095 1.40352C150.169 2.21381 153.911 4.21385 156.848 7.15076C159.784 10.0877 161.784 13.8295 162.595 17.9031C163.405 21.9767 162.989 26.1991 161.4 30.0364C159.81 33.8736 157.119 37.1534 153.665 39.4609C150.212 41.7684 146.152 43 141.998 43C136.429 43 131.087 40.7875 127.149 36.8493C123.211 32.911 120.998 27.5696 120.998 22Z" stroke="url(#paint0_linear)" stroke-opacity="0.5" stroke-width="2"/>
<path d="M180.998 22C180.998 17.8466 182.23 13.7864 184.537 10.333C186.845 6.87959 190.125 4.18798 193.962 2.59854C197.799 1.0091 202.022 0.593229 206.095 1.40352C210.169 2.21381 213.911 4.21385 216.848 7.15076C219.784 10.0877 221.784 13.8295 222.595 17.9031C223.405 21.9767 222.989 26.1991 221.4 30.0364C219.81 33.8736 217.119 37.1534 213.665 39.4609C210.212 41.7684 206.152 43 201.998 43C196.429 43 191.087 40.7875 187.149 36.8493C183.211 32.911 180.998 27.5696 180.998 22Z" stroke="url(#paint1_linear)" stroke-opacity="0.5" stroke-width="2"/>
<path d="M240.998 22C240.998 17.8466 242.23 13.7864 244.537 10.333C246.845 6.87959 250.125 4.18798 253.962 2.59854C257.799 1.0091 262.022 0.593229 266.095 1.40352C270.169 2.21381 273.911 4.21385 276.848 7.15076C279.784 10.0877 281.784 13.8295 282.595 17.9031C283.405 21.9767 282.989 26.1991 281.4 30.0364C279.81 33.8736 277.119 37.1534 273.665 39.4609C270.212 41.7684 266.152 43 261.998 43C256.429 43 251.087 40.7875 247.149 36.8493C243.211 32.911 240.998 27.5696 240.998 22Z" stroke="url(#paint2_linear)" stroke-opacity="0.5" stroke-width="2"/>
<path d="M1 82C1 77.8466 2.23163 73.7864 4.53913 70.333C6.84664 66.8796 10.1264 64.188 13.9637 62.5985C17.8009 61.0091 22.0233 60.5932 26.0969 61.4035C30.1705 62.2138 33.9124 64.2139 36.8493 67.1508C39.7862 70.0877 41.7862 73.8295 42.5965 77.9031C43.4068 81.9767 42.9909 86.1991 41.4015 90.0364C39.812 93.8736 37.1204 97.1534 33.667 99.4609C30.2136 101.768 26.1534 103 22 103C16.4305 103 11.089 100.788 7.15076 96.8493C3.21249 92.911 1 87.5696 1 82Z" stroke="url(#paint3_linear)" stroke-opacity="0.5" stroke-width="2"/>
<path d="M60.0006 81.6757C60.0645 77.3389 61.409 73.1177 63.8649 69.5428C66.3208 65.9678 69.7787 63.1985 73.8039 61.583C77.8291 59.9675 82.242 59.5779 86.4879 60.463C90.7339 61.3482 94.6236 63.4686 97.668 66.5579C100.712 69.6472 102.776 73.5674 103.599 77.8259C104.422 82.0844 103.967 86.4911 102.293 90.4923C100.619 94.4934 97.7993 97.9103 94.1888 100.314C90.5783 102.717 86.3379 104 82.0006 104C79.0902 103.979 76.2125 103.384 73.5318 102.251C70.851 101.118 68.4198 99.4674 66.3769 97.3944C64.334 95.3214 62.7194 92.8662 61.6254 90.1692C60.5313 87.4722 59.9792 84.5861 60.0006 81.6757Z" fill="#1822B7" fill-opacity="0.15"/>
<path d="M119.998 82C119.998 77.6488 121.289 73.3953 123.706 69.7774C126.123 66.1596 129.559 63.3398 133.579 61.6747C137.599 60.0095 142.023 59.5739 146.29 60.4227C150.558 61.2716 154.478 63.3669 157.555 66.4436C160.631 69.5204 162.727 73.4404 163.576 77.708C164.424 81.9756 163.989 86.3991 162.324 90.4191C160.659 94.439 157.839 97.875 154.221 100.292C150.603 102.71 146.349 104 141.998 104C136.164 104 130.568 101.682 126.442 97.5564C122.316 93.4306 119.998 87.8348 119.998 82Z" fill="#1822B7" fill-opacity="0.15"/>
<path d="M180.998 82C180.998 77.8466 182.23 73.7864 184.537 70.333C186.845 66.8796 190.125 64.188 193.962 62.5985C197.799 61.0091 202.022 60.5932 206.095 61.4035C210.169 62.2138 213.911 64.2139 216.848 67.1508C219.784 70.0877 221.784 73.8295 222.595 77.9031C223.405 81.9767 222.989 86.1991 221.4 90.0364C219.81 93.8736 217.119 97.1534 213.665 99.4609C210.212 101.768 206.152 103 201.998 103C196.429 103 191.087 100.788 187.149 96.8493C183.211 92.911 180.998 87.5696 180.998 82Z" stroke="url(#paint4_linear)" stroke-opacity="0.5" stroke-width="2"/>
<path d="M239.998 82C239.998 77.6488 241.289 73.3953 243.706 69.7774C246.123 66.1596 249.559 63.3398 253.579 61.6747C257.599 60.0095 262.023 59.5739 266.29 60.4227C270.558 61.2716 274.478 63.3669 277.555 66.4436C280.631 69.5204 282.727 73.4404 283.576 77.708C284.424 81.9756 283.989 86.3991 282.324 90.4191C280.659 94.439 277.839 97.875 274.221 100.292C270.603 102.71 266.349 104 261.998 104C256.164 104 250.568 101.682 246.442 97.5564C242.316 93.4306 239.998 87.8348 239.998 82Z" fill="#1822B7" fill-opacity="0.15"/>
<path d="M0 142C0 137.649 1.29027 133.395 3.70767 129.777C6.12506 126.16 9.56099 123.34 13.581 121.675C17.6009 120.01 22.0244 119.574 26.292 120.423C30.5596 121.272 34.4796 123.367 37.5564 126.444C40.6331 129.52 42.7284 133.44 43.5773 137.708C44.4262 141.976 43.9905 146.399 42.3254 150.419C40.6602 154.439 37.8404 157.875 34.2226 160.292C30.6047 162.71 26.3512 164 22 164C16.1652 164 10.5695 161.682 6.44365 157.556C2.31785 153.431 0 147.835 0 142Z" fill="#1822B7" fill-opacity="0.15"/>
<path d="M61 142C61 137.847 62.2316 133.786 64.5391 130.333C66.8466 126.88 70.1264 124.188 73.9637 122.599C77.8009 121.009 82.0233 120.593 86.0969 121.404C90.1705 122.214 93.9124 124.214 96.8493 127.151C99.7862 130.088 101.786 133.83 102.596 137.903C103.407 141.977 102.991 146.199 101.401 150.036C99.812 153.874 97.1204 157.153 93.667 159.461C90.2136 161.768 86.1534 163 82 163C76.4305 163 71.089 160.788 67.1508 156.849C63.2125 152.911 61 147.57 61 142Z" stroke="url(#paint5_linear)" stroke-opacity="0.5" stroke-width="2"/>
<path d="M120.001 141.676C120.065 137.339 121.409 133.118 123.865 129.543C126.321 125.968 129.779 123.199 133.804 121.583C137.829 119.968 142.242 119.578 146.488 120.463C150.734 121.348 154.624 123.469 157.668 126.558C160.712 129.647 162.776 133.567 163.599 137.826C164.422 142.084 163.967 146.491 162.293 150.492C160.619 154.493 157.799 157.91 154.189 160.314C150.578 162.717 146.338 164 142.001 164C139.09 163.979 136.212 163.384 133.532 162.251C130.851 161.118 128.42 159.467 126.377 157.394C124.334 155.321 122.719 152.866 121.625 150.169C120.531 147.472 119.979 144.586 120.001 141.676Z" fill="#1822B7" fill-opacity="0.15"/>
<path d="M179.999 141.676C180.063 137.339 181.407 133.118 183.863 129.543C186.319 125.968 189.777 123.199 193.802 121.583C197.827 119.968 202.24 119.578 206.486 120.463C210.732 121.348 214.622 123.469 217.666 126.558C220.711 129.647 222.774 133.567 223.597 137.826C224.42 142.084 223.966 146.491 222.291 150.492C220.617 154.493 217.798 157.91 214.187 160.314C210.577 162.717 206.336 164 201.999 164C199.088 163.979 196.211 163.384 193.53 162.251C190.849 161.118 188.418 159.467 186.375 157.394C184.332 155.321 182.718 152.866 181.624 150.169C180.53 147.472 179.978 144.586 179.999 141.676Z" fill="#1822B7" fill-opacity="0.15"/>
<path d="M239.997 141.676C240.061 137.339 241.406 133.118 243.861 129.543C246.317 125.968 249.775 123.199 253.8 121.583C257.826 119.968 262.239 119.578 266.485 120.463C270.731 121.348 274.62 123.469 277.665 126.558C280.709 129.647 282.772 133.567 283.595 137.826C284.418 142.084 283.964 146.491 282.29 150.492C280.615 154.493 277.796 157.91 274.185 160.314C270.575 162.717 266.334 164 261.997 164C259.087 163.979 256.209 163.384 253.528 162.251C250.848 161.118 248.416 159.467 246.373 157.394C244.331 155.321 242.716 152.866 241.622 150.169C240.528 147.472 239.976 144.586 239.997 141.676Z" fill="#1822B7" fill-opacity="0.15"/>
<path d="M0 202C0 197.649 1.29027 193.395 3.70767 189.777C6.12506 186.16 9.56099 183.34 13.581 181.675C17.6009 180.01 22.0244 179.574 26.292 180.423C30.5596 181.272 34.4796 183.367 37.5564 186.444C40.6331 189.52 42.7284 193.44 43.5773 197.708C44.4262 201.976 43.9905 206.399 42.3254 210.419C40.6602 214.439 37.8404 217.875 34.2226 220.292C30.6047 222.71 26.3512 224 22 224C16.1652 224 10.5695 221.682 6.44365 217.556C2.31785 213.431 0 207.835 0 202Z" fill="#1822B7" fill-opacity="0.15"/>
<path d="M60.0006 201.676C60.0645 197.339 61.409 193.118 63.8649 189.543C66.3208 185.968 69.7787 183.199 73.8039 181.583C77.8291 179.968 82.242 179.578 86.4879 180.463C90.7339 181.348 94.6236 183.469 97.668 186.558C100.712 189.647 102.776 193.567 103.599 197.826C104.422 202.084 103.967 206.491 102.293 210.492C100.619 214.493 97.7993 217.91 94.1888 220.314C90.5783 222.717 86.3379 224 82.0006 224C79.0902 223.979 76.2125 223.384 73.5318 222.251C70.851 221.118 68.4198 219.467 66.3769 217.394C64.334 215.321 62.7194 212.866 61.6254 210.169C60.5313 207.472 59.9792 204.586 60.0006 201.676Z" fill="#1822B7" fill-opacity="0.15"/>
<path d="M120.998 202C120.998 197.847 122.23 193.786 124.537 190.333C126.845 186.88 130.125 184.188 133.962 182.599C137.799 181.009 142.022 180.593 146.095 181.404C150.169 182.214 153.911 184.214 156.848 187.151C159.784 190.088 161.784 193.83 162.595 197.903C163.405 201.977 162.989 206.199 161.4 210.036C159.81 213.874 157.119 217.153 153.665 219.461C150.212 221.768 146.152 223 141.998 223C136.429 223 131.087 220.788 127.149 216.849C123.211 212.911 120.998 207.57 120.998 202Z" stroke="url(#paint6_linear)" stroke-opacity="0.5" stroke-width="2"/>
<path d="M180.998 202C180.998 197.847 182.23 193.786 184.537 190.333C186.845 186.88 190.125 184.188 193.962 182.599C197.799 181.009 202.022 180.593 206.095 181.404C210.169 182.214 213.911 184.214 216.848 187.151C219.784 190.088 221.784 193.83 222.595 197.903C223.405 201.977 222.989 206.199 221.4 210.036C219.81 213.874 217.119 217.153 213.665 219.461C210.212 221.768 206.152 223 201.998 223C196.429 223 191.087 220.788 187.149 216.849C183.211 212.911 180.998 207.57 180.998 202Z" stroke="url(#paint7_linear)" stroke-opacity="0.5" stroke-width="2"/>
<path d="M239.998 202C239.998 197.649 241.289 193.395 243.706 189.777C246.123 186.16 249.559 183.34 253.579 181.675C257.599 180.01 262.023 179.574 266.29 180.423C270.558 181.272 274.478 183.367 277.555 186.444C280.631 189.52 282.727 193.44 283.576 197.708C284.424 201.976 283.989 206.399 282.324 210.419C280.659 214.439 277.839 217.875 274.221 220.292C270.603 222.71 266.349 224 261.998 224C256.164 224 250.568 221.682 246.442 217.556C242.316 213.431 239.998 207.835 239.998 202Z" fill="#1822B7" fill-opacity="0.15"/>
<defs>
<linearGradient id="paint0_linear" x1="141.998" y1="0" x2="141.998" y2="44" gradientUnits="userSpaceOnUse">
<stop stop-color="#E1A352"/>
<stop offset="1" stop-color="#E3A655"/>
</linearGradient>
<linearGradient id="paint1_linear" x1="201.998" y1="0" x2="201.998" y2="44" gradientUnits="userSpaceOnUse">
<stop stop-color="#E1A352"/>
<stop offset="1" stop-color="#E3A655"/>
</linearGradient>
<linearGradient id="paint2_linear" x1="261.998" y1="0" x2="261.998" y2="44" gradientUnits="userSpaceOnUse">
<stop stop-color="#E1A352"/>
<stop offset="1" stop-color="#E3A655"/>
</linearGradient>
<linearGradient id="paint3_linear" x1="22" y1="60" x2="22" y2="104" gradientUnits="userSpaceOnUse">
<stop stop-color="#E1A352"/>
<stop offset="1" stop-color="#E3A655"/>
</linearGradient>
<linearGradient id="paint4_linear" x1="201.998" y1="60" x2="201.998" y2="104" gradientUnits="userSpaceOnUse">
<stop stop-color="#E1A352"/>
<stop offset="1" stop-color="#E3A655"/>
</linearGradient>
<linearGradient id="paint5_linear" x1="82" y1="120" x2="82" y2="164" gradientUnits="userSpaceOnUse">
<stop stop-color="#E1A352"/>
<stop offset="1" stop-color="#E3A655"/>
</linearGradient>
<linearGradient id="paint6_linear" x1="141.998" y1="180" x2="141.998" y2="224" gradientUnits="userSpaceOnUse">
<stop stop-color="#E1A352"/>
<stop offset="1" stop-color="#E3A655"/>
</linearGradient>
<linearGradient id="paint7_linear" x1="201.998" y1="180" x2="201.998" y2="224" gradientUnits="userSpaceOnUse">
<stop stop-color="#E1A352"/>
<stop offset="1" stop-color="#E3A655"/>
</linearGradient>
</defs>
</svg>
