<svg width="226" height="131" viewBox="0 0 226 131" fill="none" xmlns="http://www.w3.org/2000/svg">
<path d="M0.000434677 15.7641C0.0469385 12.6101 1.02474 9.54017 2.81094 6.94019C4.59715 4.34022 7.11205 2.32621 10.0396 1.1513C12.9671 -0.0236157 16.1766 -0.307008 19.2647 0.336736C22.3529 0.98048 25.1818 2.52263 27.396 4.76938C29.6102 7.01613 31.1108 9.86722 31.7094 12.9643C32.3079 16.0614 31.9775 19.2663 30.7598 22.1762C29.5422 25.0861 27.4915 27.5712 24.8656 29.3191C22.2396 31.0669 19.1556 31.9997 16.0011 32C13.8843 31.9846 11.7914 31.5524 9.84168 30.7281C7.89198 29.9038 6.12374 28.7036 4.63793 27.1959C3.15213 25.6883 1.97784 23.9027 1.18214 21.9412C0.38643 19.9798 -0.0151103 17.8808 0.000434677 15.7641Z" fill="#1822B7" fill-opacity="0.15"/>
<path d="M45 16C45 12.8355 45.9384 9.74206 47.6965 7.11087C49.4546 4.47968 51.9534 2.42894 54.8771 1.21794C57.8007 0.00693319 61.0177 -0.309921 64.1214 0.307443C67.2251 0.924806 70.0761 2.44865 72.3137 4.68629C74.5514 6.92393 76.0752 9.77486 76.6926 12.8786C77.3099 15.9823 76.9931 19.1993 75.7821 22.123C74.5711 25.0466 72.5203 27.5454 69.8891 29.3035C67.2579 31.0616 64.1645 32 61 32C56.7565 32 52.6869 30.3143 49.6863 27.3137C46.6857 24.3131 45 20.2435 45 16Z" fill="#1822B7" fill-opacity="0.15"/>
<path d="M91 16C91 13.0333 91.8797 10.1332 93.528 7.66644C95.1762 5.1997 97.5189 3.27713 100.26 2.14182C103.001 1.0065 106.017 0.709449 108.926 1.28823C111.836 1.86701 114.509 3.29561 116.607 5.3934C118.704 7.49118 120.133 10.1639 120.712 13.0737C121.291 15.9834 120.993 18.9994 119.858 21.7403C118.723 24.4812 116.8 26.8238 114.334 28.4721C111.867 30.1203 108.967 31 106 31C102.022 31 98.2064 29.4197 95.3934 26.6066C92.5803 23.7936 91 19.9783 91 16Z" stroke="url(#paint0_linear)" stroke-opacity="0.5" stroke-width="2"/>
<path d="M136 16C136 13.0333 136.88 10.1332 138.528 7.66644C140.176 5.1997 142.519 3.27713 145.26 2.14182C148.001 1.0065 151.017 0.709449 153.926 1.28823C156.836 1.86701 159.509 3.29561 161.607 5.3934C163.704 7.49118 165.133 10.1639 165.712 13.0737C166.291 15.9834 165.993 18.9994 164.858 21.7403C163.723 24.4812 161.8 26.8238 159.334 28.4721C156.867 30.1203 153.967 31 151 31C147.022 31 143.206 29.4197 140.393 26.6066C137.58 23.7936 136 19.9783 136 16Z" stroke="url(#paint1_linear)" stroke-opacity="0.5" stroke-width="2"/>
<path d="M181 16C181 13.0333 181.88 10.1332 183.528 7.66644C185.176 5.1997 187.519 3.27713 190.26 2.14182C193.001 1.0065 196.017 0.709449 198.926 1.28823C201.836 1.86701 204.509 3.29561 206.607 5.3934C208.704 7.49118 210.133 10.1639 210.712 13.0737C211.291 15.9834 210.993 18.9994 209.858 21.7403C208.723 24.4812 206.8 26.8238 204.334 28.4721C201.867 30.1203 198.967 31 196 31C192.022 31 188.206 29.4197 185.393 26.6066C182.58 23.7936 181 19.9783 181 16Z" stroke="url(#paint2_linear)" stroke-opacity="0.5" stroke-width="2"/>
<path d="M1 64C1 61.0333 1.87973 58.1332 3.52795 55.6664C5.17617 53.1997 7.51885 51.2771 10.2597 50.1418C13.0006 49.0065 16.0166 48.7094 18.9264 49.2882C21.8361 49.867 24.5088 51.2956 26.6066 53.3934C28.7044 55.4912 30.133 58.1639 30.7118 61.0737C31.2906 63.9834 30.9935 66.9994 29.8582 69.7403C28.7229 72.4812 26.8003 74.8238 24.3336 76.4721C21.8668 78.1203 18.9667 79 16 79C12.0218 79 8.20644 77.4197 5.3934 74.6066C2.58035 71.7936 1 67.9783 1 64Z" stroke="url(#paint3_linear)" stroke-opacity="0.5" stroke-width="2"/>
<path d="M45.0004 63.7641C45.0469 60.6101 46.0247 57.5402 47.8109 54.9402C49.5971 52.3402 52.1121 50.3262 55.0396 49.1513C57.9671 47.9764 61.1766 47.693 64.2647 48.3367C67.3529 48.9805 70.1818 50.5226 72.396 52.7694C74.6102 55.0161 76.1108 57.8672 76.7094 60.9643C77.3079 64.0614 76.9775 67.2663 75.7598 70.1762C74.5422 73.0861 72.4915 75.5712 69.8656 77.3191C67.2396 79.0669 64.1556 79.9997 61.0011 80C58.8843 79.9846 56.7914 79.5524 54.8417 78.7281C52.892 77.9038 51.1237 76.7036 49.6379 75.1959C48.1521 73.6883 46.9778 71.9027 46.1821 69.9412C45.3864 67.9798 44.9849 65.8808 45.0004 63.7641Z" fill="#1822B7" fill-opacity="0.15"/>
<path d="M90 64C90 60.8355 90.9384 57.7421 92.6965 55.1109C94.4546 52.4797 96.9534 50.4289 99.8771 49.2179C102.801 48.0069 106.018 47.6901 109.121 48.3074C112.225 48.9248 115.076 50.4486 117.314 52.6863C119.551 54.9239 121.075 57.7749 121.693 60.8786C122.31 63.9823 121.993 67.1993 120.782 70.123C119.571 73.0466 117.52 75.5454 114.889 77.3035C112.258 79.0616 109.165 80 106 80C101.757 80 97.6869 78.3143 94.6863 75.3137C91.6857 72.3131 90 68.2435 90 64Z" fill="#1822B7" fill-opacity="0.15"/>
<path d="M136 64C136 61.0333 136.88 58.1332 138.528 55.6664C140.176 53.1997 142.519 51.2771 145.26 50.1418C148.001 49.0065 151.017 48.7094 153.926 49.2882C156.836 49.867 159.509 51.2956 161.607 53.3934C163.704 55.4912 165.133 58.1639 165.712 61.0737C166.291 63.9834 165.993 66.9994 164.858 69.7403C163.723 72.4812 161.8 74.8238 159.334 76.4721C156.867 78.1203 153.967 79 151 79C147.022 79 143.206 77.4197 140.393 74.6066C137.58 71.7936 136 67.9783 136 64Z" stroke="url(#paint4_linear)" stroke-opacity="0.5" stroke-width="2"/>
<path d="M180 64C180 60.8355 180.938 57.7421 182.696 55.1109C184.455 52.4797 186.953 50.4289 189.877 49.2179C192.801 48.0069 196.018 47.6901 199.121 48.3074C202.225 48.9248 205.076 50.4486 207.314 52.6863C209.551 54.9239 211.075 57.7749 211.693 60.8786C212.31 63.9823 211.993 67.1993 210.782 70.123C209.571 73.0466 207.52 75.5454 204.889 77.3035C202.258 79.0616 199.165 80 196 80C191.757 80 187.687 78.3143 184.686 75.3137C181.686 72.3131 180 68.2435 180 64Z" fill="#1822B7" fill-opacity="0.15"/>
<path d="M0 112C0 108.836 0.93838 105.742 2.69648 103.111C4.45459 100.48 6.95345 98.4289 9.87707 97.2179C12.8007 96.0069 16.0177 95.6901 19.1214 96.3074C22.2251 96.9248 25.0761 98.4486 27.3137 100.686C29.5514 102.924 31.0752 105.775 31.6926 108.879C32.3099 111.982 31.9931 115.199 30.7821 118.123C29.5711 121.047 27.5203 123.545 24.8891 125.304C22.2579 127.062 19.1645 128 16 128C11.7565 128 7.68687 126.314 4.68629 123.314C1.68571 120.313 0 116.243 0 112Z" fill="#1822B7" fill-opacity="0.15"/>
<path d="M46 112C46 109.033 46.8797 106.133 48.528 103.666C50.1762 101.2 52.5189 99.2771 55.2597 98.1418C58.0006 97.0065 61.0166 96.7094 63.9264 97.2882C66.8361 97.867 69.5088 99.2956 71.6066 101.393C73.7044 103.491 75.133 106.164 75.7118 109.074C76.2906 111.983 75.9935 114.999 74.8582 117.74C73.7229 120.481 71.8003 122.824 69.3336 124.472C66.8668 126.12 63.9667 127 61 127C57.0218 127 53.2064 125.42 50.3934 122.607C47.5803 119.794 46 115.978 46 112Z" stroke="url(#paint5_linear)" stroke-opacity="0.5" stroke-width="2"/>
<path d="M90.0004 111.764C90.0469 108.61 91.0247 105.54 92.8109 102.94C94.5971 100.34 97.1121 98.3262 100.04 97.1513C102.967 95.9764 106.177 95.693 109.265 96.3367C112.353 96.9805 115.182 98.5226 117.396 100.769C119.61 103.016 121.111 105.867 121.709 108.964C122.308 112.061 121.978 115.266 120.76 118.176C119.542 121.086 117.492 123.571 114.866 125.319C112.24 127.067 109.156 128 106.001 128C103.884 127.985 101.791 127.552 99.8417 126.728C97.892 125.904 96.1237 124.704 94.6379 123.196C93.1521 121.688 91.9778 119.903 91.1821 117.941C90.3864 115.98 89.9849 113.881 90.0004 111.764Z" fill="#1822B7" fill-opacity="0.15"/>
<path d="M135 111.764C135.047 108.61 136.025 105.54 137.811 102.94C139.597 100.34 142.112 98.3262 145.04 97.1513C147.967 95.9764 151.177 95.693 154.265 96.3367C157.353 96.9805 160.182 98.5226 162.396 100.769C164.61 103.016 166.111 105.867 166.709 108.964C167.308 112.061 166.978 115.266 165.76 118.176C164.542 121.086 162.492 123.571 159.866 125.319C157.24 127.067 154.156 128 151.001 128C148.884 127.985 146.791 127.552 144.842 126.728C142.892 125.904 141.124 124.704 139.638 123.196C138.152 121.688 136.978 119.903 136.182 117.941C135.386 115.98 134.985 113.881 135 111.764Z" fill="#1822B7" fill-opacity="0.15"/>
<path d="M180 111.764C180.047 108.61 181.025 105.54 182.811 102.94C184.597 100.34 187.112 98.3262 190.04 97.1513C192.967 95.9764 196.177 95.693 199.265 96.3367C202.353 96.9805 205.182 98.5226 207.396 100.769C209.61 103.016 211.111 105.867 211.709 108.964C212.308 112.061 211.978 115.266 210.76 118.176C209.542 121.086 207.492 123.571 204.866 125.319C202.24 127.067 199.156 128 196.001 128C193.884 127.985 191.791 127.552 189.842 126.728C187.892 125.904 186.124 124.704 184.638 123.196C183.152 121.688 181.978 119.903 181.182 117.941C180.386 115.98 179.985 113.881 180 111.764Z" fill="#1822B7" fill-opacity="0.15"/>
<defs>
<linearGradient id="paint0_linear" x1="106" y1="0" x2="106" y2="32" gradientUnits="userSpaceOnUse">
<stop stop-color="#E1A352"/>
<stop offset="1" stop-color="#E3A655"/>
</linearGradient>
<linearGradient id="paint1_linear" x1="151" y1="0" x2="151" y2="32" gradientUnits="userSpaceOnUse">
<stop stop-color="#E1A352"/>
<stop offset="1" stop-color="#E3A655"/>
</linearGradient>
<linearGradient id="paint2_linear" x1="196" y1="0" x2="196" y2="32" gradientUnits="userSpaceOnUse">
<stop stop-color="#E1A352"/>
<stop offset="1" stop-color="#E3A655"/>
</linearGradient>
<linearGradient id="paint3_linear" x1="16" y1="48" x2="16" y2="80" gradientUnits="userSpaceOnUse">
<stop stop-color="#E1A352"/>
<stop offset="1" stop-color="#E3A655"/>
</linearGradient>
<linearGradient id="paint4_linear" x1="151" y1="48" x2="151" y2="80" gradientUnits="userSpaceOnUse">
<stop stop-color="#E1A352"/>
<stop offset="1" stop-color="#E3A655"/>
</linearGradient>
<linearGradient id="paint5_linear" x1="61" y1="96" x2="61" y2="128" gradientUnits="userSpaceOnUse">
<stop stop-color="#E1A352"/>
<stop offset="1" stop-color="#E3A655"/>
</linearGradient>
</defs>
</svg>
