<svg width="114" height="268" viewBox="0 0 114 268" fill="none" xmlns="http://www.w3.org/2000/svg">
<mask id="path-1-inside-1" fill="white">
<path d="M112.514 221.154C109.052 221.157 105.666 220.133 102.786 218.211C99.9062 216.289 97.661 213.556 96.3348 210.358C95.0085 207.159 94.6608 203.64 95.3356 200.244C96.0104 196.848 97.6774 193.728 100.126 191.28C102.574 188.832 105.693 187.165 109.089 186.49C112.485 185.815 116.005 186.163 119.203 187.489C122.402 188.815 125.135 191.06 127.056 193.94C128.978 196.82 130.003 200.206 130 203.668C130 205.964 129.548 208.238 128.669 210.36C127.79 212.481 126.502 214.409 124.878 216.033C123.255 217.656 121.327 218.944 119.206 219.823C117.084 220.702 114.81 221.154 112.514 221.154Z"/>
</mask>
<path d="M130 203.668L128 203.667V203.668H130ZM112.512 219.154C109.446 219.157 106.447 218.249 103.896 216.547L101.676 219.874C104.885 222.016 108.657 223.157 112.515 223.154L112.512 219.154ZM103.896 216.547C101.345 214.845 99.3569 212.424 98.1822 209.592L94.4873 211.124C95.9651 214.688 98.4669 217.733 101.676 219.874L103.896 216.547ZM98.1822 209.592C97.0075 206.759 96.6996 203.641 97.2972 200.633L93.3739 199.854C92.622 203.638 93.0095 207.56 94.4873 211.124L98.1822 209.592ZM97.2972 200.633C97.8949 197.626 99.3714 194.863 101.54 192.694L98.7114 189.866C95.9834 192.594 94.1259 196.07 93.3739 199.854L97.2972 200.633ZM101.54 192.694C103.708 190.526 106.471 189.049 109.479 188.452L108.7 184.528C104.915 185.28 101.439 187.138 98.7114 189.866L101.54 192.694ZM109.479 188.452C112.487 187.854 115.604 188.162 118.437 189.337L119.969 185.642C116.406 184.164 112.484 183.776 108.7 184.528L109.479 188.452ZM118.437 189.337C121.27 190.511 123.691 192.5 125.393 195.051L128.72 192.83C126.579 189.621 123.533 187.119 119.969 185.642L118.437 189.337ZM125.393 195.051C127.095 197.601 128.002 200.6 128 203.667L132 203.67C132.003 199.812 130.862 196.039 128.72 192.83L125.393 195.051ZM128 203.668C128 205.702 127.599 207.716 126.821 209.594L130.517 211.125C131.496 208.761 132 206.227 132 203.668H128ZM126.821 209.594C126.043 211.473 124.902 213.18 123.464 214.619L126.293 217.447C128.102 215.637 129.537 213.489 130.517 211.125L126.821 209.594ZM123.464 214.619C122.026 216.057 120.319 217.197 118.44 217.975L119.971 221.671C122.335 220.692 124.483 219.256 126.293 217.447L123.464 214.619ZM118.44 217.975C116.561 218.754 114.548 219.154 112.514 219.154V223.154C115.073 223.154 117.607 222.65 119.971 221.671L118.44 217.975Z" fill="white" mask="url(#path-1-inside-1)"/>
<path d="M130 203.668L128 203.667V203.668H130ZM112.512 219.154C109.446 219.157 106.447 218.249 103.896 216.547L101.676 219.874C104.885 222.016 108.657 223.157 112.515 223.154L112.512 219.154ZM103.896 216.547C101.345 214.845 99.3569 212.424 98.1822 209.592L94.4873 211.124C95.9651 214.688 98.4669 217.733 101.676 219.874L103.896 216.547ZM98.1822 209.592C97.0075 206.759 96.6996 203.641 97.2972 200.633L93.3739 199.854C92.622 203.638 93.0095 207.56 94.4873 211.124L98.1822 209.592ZM97.2972 200.633C97.8949 197.626 99.3714 194.863 101.54 192.694L98.7114 189.866C95.9834 192.594 94.1259 196.07 93.3739 199.854L97.2972 200.633ZM101.54 192.694C103.708 190.526 106.471 189.049 109.479 188.452L108.7 184.528C104.915 185.28 101.439 187.138 98.7114 189.866L101.54 192.694ZM109.479 188.452C112.487 187.854 115.604 188.162 118.437 189.337L119.969 185.642C116.406 184.164 112.484 183.776 108.7 184.528L109.479 188.452ZM118.437 189.337C121.27 190.511 123.691 192.5 125.393 195.051L128.72 192.83C126.579 189.621 123.533 187.119 119.969 185.642L118.437 189.337ZM125.393 195.051C127.095 197.601 128.002 200.6 128 203.667L132 203.67C132.003 199.812 130.862 196.039 128.72 192.83L125.393 195.051ZM128 203.668C128 205.702 127.599 207.716 126.821 209.594L130.517 211.125C131.496 208.761 132 206.227 132 203.668H128ZM126.821 209.594C126.043 211.473 124.902 213.18 123.464 214.619L126.293 217.447C128.102 215.637 129.537 213.489 130.517 211.125L126.821 209.594ZM123.464 214.619C122.026 216.057 120.319 217.197 118.44 217.975L119.971 221.671C122.335 220.692 124.483 219.256 126.293 217.447L123.464 214.619ZM118.44 217.975C116.561 218.754 114.548 219.154 112.514 219.154V223.154C115.073 223.154 117.607 222.65 119.971 221.671L118.44 217.975Z" fill="url(#paint0_linear)" mask="url(#path-1-inside-1)"/>
<mask id="path-3-inside-2" fill="white">
<path d="M112.514 175.154C109.052 175.157 105.667 174.133 102.788 172.212C99.9079 170.291 97.6628 167.558 96.3361 164.361C95.0094 161.163 94.6609 157.644 95.3346 154.249C96.0082 150.853 97.6739 147.734 100.121 145.285C102.568 142.836 105.686 141.168 109.081 140.492C112.476 139.815 115.995 140.161 119.194 141.485C122.392 142.809 125.126 145.052 127.05 147.93C128.973 150.809 130 154.193 130 157.654C130 162.293 128.158 166.742 124.879 170.024C121.6 173.305 117.153 175.151 112.514 175.154Z"/>
</mask>
<path d="M130 157.654H132H130ZM112.512 173.154C109.446 173.157 106.448 172.25 103.898 170.548L101.678 173.875C104.886 176.016 108.658 177.157 112.515 177.154L112.512 173.154ZM103.898 170.548C101.347 168.846 99.3584 166.426 98.1834 163.594L94.4888 165.127C95.9671 168.69 98.4688 171.735 101.678 173.875L103.898 170.548ZM98.1834 163.594C97.0084 160.762 96.6997 157.645 97.2963 154.638L93.3728 153.86C92.6221 157.643 93.0105 161.564 94.4888 165.127L98.1834 163.594ZM97.2963 154.638C97.893 151.63 99.3683 148.867 101.536 146.698L98.706 143.871C95.9795 146.6 94.1235 150.076 93.3728 153.86L97.2963 154.638ZM101.536 146.698C103.703 144.53 106.465 143.052 109.472 142.453L108.69 138.53C104.907 139.284 101.432 141.143 98.706 143.871L101.536 146.698ZM109.472 142.453C112.479 141.854 115.596 142.16 118.429 143.333L119.959 139.637C116.395 138.162 112.473 137.776 108.69 138.53L109.472 142.453ZM118.429 143.333C121.262 144.506 123.683 146.492 125.387 149.042L128.713 146.819C126.569 143.612 123.523 141.113 119.959 139.637L118.429 143.333ZM125.387 149.042C127.091 151.591 128 154.588 128 157.654H132C132 153.797 130.856 150.026 128.713 146.819L125.387 149.042ZM128 157.654C128 161.763 126.369 165.704 123.464 168.61L126.294 171.437C129.948 167.781 132 162.823 132 157.654H128ZM123.464 168.61C120.56 171.517 116.621 173.151 112.512 173.154L112.515 177.154C117.685 177.15 122.64 175.094 126.294 171.437L123.464 168.61Z" fill="white" mask="url(#path-3-inside-2)"/>
<path d="M130 157.654H132H130ZM112.512 173.154C109.446 173.157 106.448 172.25 103.898 170.548L101.678 173.875C104.886 176.016 108.658 177.157 112.515 177.154L112.512 173.154ZM103.898 170.548C101.347 168.846 99.3584 166.426 98.1834 163.594L94.4888 165.127C95.9671 168.69 98.4688 171.735 101.678 173.875L103.898 170.548ZM98.1834 163.594C97.0084 160.762 96.6997 157.645 97.2963 154.638L93.3728 153.86C92.6221 157.643 93.0105 161.564 94.4888 165.127L98.1834 163.594ZM97.2963 154.638C97.893 151.63 99.3683 148.867 101.536 146.698L98.706 143.871C95.9795 146.6 94.1235 150.076 93.3728 153.86L97.2963 154.638ZM101.536 146.698C103.703 144.53 106.465 143.052 109.472 142.453L108.69 138.53C104.907 139.284 101.432 141.143 98.706 143.871L101.536 146.698ZM109.472 142.453C112.479 141.854 115.596 142.16 118.429 143.333L119.959 139.637C116.395 138.162 112.473 137.776 108.69 138.53L109.472 142.453ZM118.429 143.333C121.262 144.506 123.683 146.492 125.387 149.042L128.713 146.819C126.569 143.612 123.523 141.113 119.959 139.637L118.429 143.333ZM125.387 149.042C127.091 151.591 128 154.588 128 157.654H132C132 153.797 130.856 150.026 128.713 146.819L125.387 149.042ZM128 157.654C128 161.763 126.369 165.704 123.464 168.61L126.294 171.437C129.948 167.781 132 162.823 132 157.654H128ZM123.464 168.61C120.56 171.517 116.621 173.151 112.512 173.154L112.515 177.154C117.685 177.15 122.64 175.094 126.294 171.437L123.464 168.61Z" fill="url(#paint1_linear)" mask="url(#path-3-inside-2)"/>
<path d="M112.5 128.154C121.613 128.154 129 120.543 129 111.154C129 101.765 121.613 94.1543 112.5 94.1543C103.387 94.1543 96 101.765 96 111.154C96 120.543 103.387 128.154 112.5 128.154Z" stroke="white" stroke-width="2"/>
<path d="M112.5 128.154C121.613 128.154 129 120.543 129 111.154C129 101.765 121.613 94.1543 112.5 94.1543C103.387 94.1543 96 101.765 96 111.154C96 120.543 103.387 128.154 112.5 128.154Z" stroke="url(#paint2_linear)" stroke-width="2"/>
<path d="M127.866 68.5013C129.916 59.6221 124.38 50.7622 115.5 48.7121C106.621 46.662 97.7616 52.1981 95.7117 61.0772C93.6618 69.9563 99.1979 78.8162 108.077 80.8663C116.956 82.9164 125.816 77.3804 127.866 68.5013Z" stroke="white" stroke-width="2"/>
<path d="M127.866 68.5013C129.916 59.6221 124.38 50.7622 115.5 48.7121C106.621 46.662 97.7616 52.1981 95.7117 61.0772C93.6618 69.9563 99.1979 78.8162 108.077 80.8663C116.956 82.9164 125.816 77.3804 127.866 68.5013Z" stroke="url(#paint3_linear)" stroke-width="2"/>
<path d="M112.514 36.1543H112.513C109.249 36.1569 106.057 35.191 103.341 33.379C100.626 31.5669 98.509 28.9901 97.2585 25.9746C96.008 22.9591 95.6802 19.6404 96.3164 16.4385C96.9527 13.2366 98.5244 10.2954 100.833 7.98704C103.141 5.67869 106.082 4.10695 109.284 3.47071C112.486 2.83447 115.805 3.16233 118.82 4.41279C121.836 5.66326 124.413 7.78013 126.225 10.4955C128.037 13.211 129.003 16.4029 129 19.6674V19.6682C129 21.8332 128.574 23.9769 127.745 25.9771C126.917 27.9773 125.702 29.7947 124.171 31.3256C122.64 32.8565 120.823 34.0709 118.823 34.8994C116.823 35.7279 114.679 36.1543 112.514 36.1543ZM130 19.6682C130 21.9645 129.548 24.2383 128.669 26.3598C127.79 28.4813 126.502 30.409 124.878 32.0327C123.255 33.6565 121.327 34.9445 119.206 35.8232C117.084 36.702 114.81 37.1543 112.514 37.1543L130 19.6682Z" stroke="white" stroke-width="2"/>
<path d="M112.514 36.1543H112.513C109.249 36.1569 106.057 35.191 103.341 33.379C100.626 31.5669 98.509 28.9901 97.2585 25.9746C96.008 22.9591 95.6802 19.6404 96.3164 16.4385C96.9527 13.2366 98.5244 10.2954 100.833 7.98704C103.141 5.67869 106.082 4.10695 109.284 3.47071C112.486 2.83447 115.805 3.16233 118.82 4.41279C121.836 5.66326 124.413 7.78013 126.225 10.4955C128.037 13.211 129.003 16.4029 129 19.6674V19.6682C129 21.8332 128.574 23.9769 127.745 25.9771C126.917 27.9773 125.702 29.7947 124.171 31.3256C122.64 32.8565 120.823 34.0709 118.823 34.8994C116.823 35.7279 114.679 36.1543 112.514 36.1543ZM130 19.6682C130 21.9645 129.548 24.2383 128.669 26.3598C127.79 28.4813 126.502 30.409 124.878 32.0327C123.255 33.6565 121.327 34.9445 119.206 35.8232C117.084 36.702 114.81 37.1543 112.514 37.1543L130 19.6682Z" stroke="url(#paint4_linear)" stroke-width="2"/>
<path d="M66 219.154C75.3888 219.154 83 211.767 83 202.654C83 193.542 75.3888 186.154 66 186.154C56.6112 186.154 49 193.542 49 202.654C49 211.767 56.6112 219.154 66 219.154Z" stroke="white" stroke-width="2"/>
<path d="M66 219.154C75.3888 219.154 83 211.767 83 202.654C83 193.542 75.3888 186.154 66 186.154C56.6112 186.154 49 193.542 49 202.654C49 211.767 56.6112 219.154 66 219.154Z" stroke="url(#paint5_linear)" stroke-width="2"/>
<path d="M66 128.154C75.3888 128.154 83 120.543 83 111.154C83 101.765 75.3888 94.1543 66 94.1543C56.6112 94.1543 49 101.765 49 111.154C49 120.543 56.6112 128.154 66 128.154Z" stroke="white" stroke-width="2"/>
<path d="M66 128.154C75.3888 128.154 83 120.543 83 111.154C83 101.765 75.3888 94.1543 66 94.1543C56.6112 94.1543 49 101.765 49 111.154C49 120.543 56.6112 128.154 66 128.154Z" stroke="url(#paint6_linear)" stroke-width="2"/>
<path d="M66 81.1543C75.3888 81.1543 83 73.767 83 64.6543C83 55.5416 75.3888 48.1543 66 48.1543C56.6112 48.1543 49 55.5416 49 64.6543C49 73.767 56.6112 81.1543 66 81.1543Z" stroke="white" stroke-width="2"/>
<path d="M66 81.1543C75.3888 81.1543 83 73.767 83 64.6543C83 55.5416 75.3888 48.1543 66 48.1543C56.6112 48.1543 49 55.5416 49 64.6543C49 73.767 56.6112 81.1543 66 81.1543Z" stroke="url(#paint7_linear)" stroke-width="2"/>
<path d="M19.5 219.154C28.6127 219.154 36 211.767 36 202.654C36 193.542 28.6127 186.154 19.5 186.154C10.3873 186.154 3 193.542 3 202.654C3 211.767 10.3873 219.154 19.5 219.154Z" stroke="white" stroke-width="2"/>
<path d="M19.5 219.154C28.6127 219.154 36 211.767 36 202.654C36 193.542 28.6127 186.154 19.5 186.154C10.3873 186.154 3 193.542 3 202.654C3 211.767 10.3873 219.154 19.5 219.154Z" stroke="url(#paint8_linear)" stroke-width="2"/>
<path d="M3.00001 156.641C3.00268 153.378 3.97266 150.189 5.78732 147.478C7.60199 144.766 10.1799 142.653 13.1951 141.406C16.2103 140.16 19.5275 139.835 22.7273 140.473C25.9271 141.111 28.8658 142.684 31.172 144.992C33.4782 147.3 35.0484 150.24 35.6839 153.44C36.3195 156.641 35.992 159.958 34.7427 162.972C33.4935 165.986 31.3786 168.562 28.6655 170.374C25.9524 172.187 22.7628 173.154 19.5 173.154C17.3321 173.154 15.1854 172.727 13.1826 171.897C11.1799 171.067 9.3603 169.85 7.82796 168.317C6.29561 166.783 5.08052 164.963 4.25211 162.959C3.42371 160.956 2.99823 158.809 3.00001 156.641V156.641Z" stroke="white" stroke-width="2"/>
<path d="M3.00001 156.641C3.00268 153.378 3.97266 150.189 5.78732 147.478C7.60199 144.766 10.1799 142.653 13.1951 141.406C16.2103 140.16 19.5275 139.835 22.7273 140.473C25.9271 141.111 28.8658 142.684 31.172 144.992C33.4782 147.3 35.0484 150.24 35.6839 153.44C36.3195 156.641 35.992 159.958 34.7427 162.972C33.4935 165.986 31.3786 168.562 28.6655 170.374C25.9524 172.187 22.7628 173.154 19.5 173.154C17.3321 173.154 15.1854 172.727 13.1826 171.897C11.1799 171.067 9.3603 169.85 7.82796 168.317C6.29561 166.783 5.08052 164.963 4.25211 162.959C3.42371 160.956 2.99823 158.809 3.00001 156.641V156.641Z" stroke="url(#paint9_linear)" stroke-width="2"/>
<path d="M19.5 81.1543C28.6127 81.1543 36 73.767 36 64.6543C36 55.5416 28.6127 48.1543 19.5 48.1543C10.3873 48.1543 3 55.5416 3 64.6543C3 73.767 10.3873 81.1543 19.5 81.1543Z" stroke="white" stroke-width="2"/>
<path d="M19.5 81.1543C28.6127 81.1543 36 73.767 36 64.6543C36 55.5416 28.6127 48.1543 19.5 48.1543C10.3873 48.1543 3 55.5416 3 64.6543C3 73.767 10.3873 81.1543 19.5 81.1543Z" stroke="url(#paint10_linear)" stroke-width="2"/>
<path d="M35.8658 23.5012C37.9157 14.6221 32.3795 5.76221 23.5004 3.71211C14.6213 1.66201 5.7616 7.19805 3.71169 16.0772C1.66178 24.9563 7.19793 33.8162 16.077 35.8663C24.9561 37.9164 33.8158 32.3804 35.8658 23.5012Z" stroke="white" stroke-width="2"/>
<path d="M35.8658 23.5012C37.9157 14.6221 32.3795 5.76221 23.5004 3.71211C14.6213 1.66201 5.7616 7.19805 3.71169 16.0772C1.66178 24.9563 7.19793 33.8162 16.077 35.8663C24.9561 37.9164 33.8158 32.3804 35.8658 23.5012Z" stroke="url(#paint11_linear)" stroke-width="2"/>
<defs>
<linearGradient id="paint0_linear" x1="112.5" y1="186.154" x2="112.5" y2="221.154" gradientUnits="userSpaceOnUse">
<stop stop-color="#E1A352"/>
<stop offset="1" stop-color="#E3A655"/>
</linearGradient>
<linearGradient id="paint1_linear" x1="112.5" y1="140.154" x2="112.5" y2="175.154" gradientUnits="userSpaceOnUse">
<stop stop-color="#E1A352"/>
<stop offset="1" stop-color="#E3A655"/>
</linearGradient>
<linearGradient id="paint2_linear" x1="112.5" y1="94.1543" x2="112.5" y2="128.154" gradientUnits="userSpaceOnUse">
<stop stop-color="#E1A352"/>
<stop offset="1" stop-color="#E3A655"/>
</linearGradient>
<linearGradient id="paint3_linear" x1="95.7117" y1="61.0772" x2="127.866" y2="68.5006" gradientUnits="userSpaceOnUse">
<stop stop-color="#E1A352"/>
<stop offset="1" stop-color="#E3A655"/>
</linearGradient>
<linearGradient id="paint4_linear" x1="112.5" y1="2.1543" x2="112.5" y2="37.1543" gradientUnits="userSpaceOnUse">
<stop stop-color="#E1A352"/>
<stop offset="1" stop-color="#E3A655"/>
</linearGradient>
<linearGradient id="paint5_linear" x1="66" y1="186.154" x2="66" y2="219.154" gradientUnits="userSpaceOnUse">
<stop stop-color="#E1A352"/>
<stop offset="1" stop-color="#E3A655"/>
</linearGradient>
<linearGradient id="paint6_linear" x1="66" y1="94.1543" x2="66" y2="128.154" gradientUnits="userSpaceOnUse">
<stop stop-color="#E1A352"/>
<stop offset="1" stop-color="#E3A655"/>
</linearGradient>
<linearGradient id="paint7_linear" x1="66" y1="48.1543" x2="66" y2="81.1543" gradientUnits="userSpaceOnUse">
<stop stop-color="#E1A352"/>
<stop offset="1" stop-color="#E3A655"/>
</linearGradient>
<linearGradient id="paint8_linear" x1="19.5" y1="186.154" x2="19.5" y2="219.154" gradientUnits="userSpaceOnUse">
<stop stop-color="#E1A352"/>
<stop offset="1" stop-color="#E3A655"/>
</linearGradient>
<linearGradient id="paint9_linear" x1="19.5" y1="140.154" x2="19.5" y2="173.154" gradientUnits="userSpaceOnUse">
<stop stop-color="#E1A352"/>
<stop offset="1" stop-color="#E3A655"/>
</linearGradient>
<linearGradient id="paint10_linear" x1="19.5" y1="48.1543" x2="19.5" y2="81.1543" gradientUnits="userSpaceOnUse">
<stop stop-color="#E1A352"/>
<stop offset="1" stop-color="#E3A655"/>
</linearGradient>
<linearGradient id="paint11_linear" x1="3.71169" y1="16.0772" x2="35.8659" y2="23.5006" gradientUnits="userSpaceOnUse">
<stop stop-color="#E1A352"/>
<stop offset="1" stop-color="#E3A655"/>
</linearGradient>
</defs>
</svg>
