<svg width="389" height="390" viewBox="0 0 389 390" fill="none" xmlns="http://www.w3.org/2000/svg">
<path d="M339.381 363.501C339.448 358.707 340.93 354.04 343.643 350.087C346.355 346.133 350.176 343.07 354.624 341.283C359.073 339.495 363.951 339.063 368.644 340.04C373.338 341.018 377.638 343.361 381.003 346.776C384.368 350.191 386.649 354.525 387.557 359.232C388.466 363.939 387.962 368.81 386.11 373.232C384.257 377.654 381.139 381.43 377.146 384.084C373.153 386.738 368.465 388.152 363.671 388.149C360.457 388.125 357.28 387.469 354.32 386.218C351.361 384.967 348.676 383.145 346.421 380.856C344.165 378.567 342.383 375.856 341.175 372.879C339.967 369.901 339.357 366.714 339.381 363.501Z" stroke="url(#paint0_linear)" stroke-width="2"/>
<path d="M339.381 229.918C339.381 225.109 340.807 220.408 343.479 216.41C346.151 212.412 349.949 209.296 354.392 207.457C358.835 205.618 363.724 205.137 368.44 206.077C373.156 207.017 377.488 209.334 380.887 212.736C384.286 216.137 386.6 220.471 387.535 225.188C388.471 229.904 387.987 234.793 386.144 239.235C384.301 243.676 381.182 247.472 377.182 250.14C373.181 252.809 368.479 254.231 363.671 254.228C360.479 254.228 357.319 253.599 354.371 252.377C351.422 251.155 348.744 249.364 346.488 247.106C344.232 244.849 342.444 242.169 341.224 239.219C340.005 236.27 339.378 233.109 339.381 229.918Z" fill="url(#paint1_linear)"/>
<path d="M339.381 29.3942C339.377 24.5845 340.8 19.8817 343.469 15.881C346.139 11.8803 349.936 8.76137 354.378 6.91897C358.821 5.07658 363.711 4.59348 368.428 5.53084C373.146 6.46819 377.479 8.78387 380.88 12.1848C384.281 15.5858 386.597 19.9191 387.534 24.6366C388.471 29.354 387.988 34.2435 386.146 38.6863C384.303 43.1291 381.184 46.9256 377.184 49.5952C373.183 52.2649 368.48 53.6878 363.671 53.6838C357.229 53.6838 351.05 51.1247 346.495 46.5695C341.94 42.0144 339.381 35.8362 339.381 29.3942V29.3942Z" stroke="url(#paint2_linear)" stroke-width="2"/>
<path d="M272.062 363.501C272.062 358.626 273.508 353.861 276.216 349.808C278.924 345.754 282.774 342.595 287.277 340.73C291.781 338.864 296.737 338.376 301.518 339.327C306.3 340.278 310.691 342.626 314.138 346.073C317.585 349.52 319.933 353.912 320.884 358.693C321.835 363.474 321.347 368.43 319.481 372.934C317.616 377.437 314.457 381.287 310.403 383.995C306.35 386.703 301.585 388.149 296.71 388.149C290.173 388.149 283.904 385.552 279.281 380.93C274.659 376.308 272.062 370.038 272.062 363.501V363.501Z" stroke="url(#paint3_linear)" stroke-width="2"/>
<path d="M272.062 229.918C271.995 225.029 273.383 220.231 276.051 216.134C278.718 212.036 282.543 208.824 287.041 206.907C291.538 204.989 296.505 204.453 301.308 205.365C306.111 206.278 310.534 208.598 314.015 212.031C317.496 215.465 319.878 219.855 320.856 224.646C321.835 229.436 321.367 234.409 319.512 238.932C317.657 243.456 314.498 247.326 310.438 250.049C306.378 252.773 301.599 254.227 296.71 254.228C293.495 254.251 290.307 253.641 287.328 252.432C284.349 251.223 281.637 249.438 279.348 247.181C277.059 244.923 275.238 242.236 273.987 239.274C272.737 236.312 272.083 233.133 272.062 229.918Z" stroke="url(#paint4_linear)" stroke-width="2"/>
<path d="M272.062 162.957C272.062 158.082 273.508 153.317 276.216 149.264C278.924 145.21 282.774 142.051 287.277 140.186C291.781 138.32 296.737 137.832 301.518 138.783C306.3 139.734 310.691 142.082 314.138 145.529C317.585 148.976 319.933 153.368 320.884 158.149C321.835 162.93 321.347 167.886 319.481 172.39C317.616 176.893 314.457 180.743 310.403 183.451C306.35 186.159 301.585 187.605 296.71 187.605C290.173 187.605 283.904 185.008 279.281 180.386C274.659 175.764 272.062 169.494 272.062 162.957Z" fill="url(#paint5_linear)"/>
<path d="M272.062 95.9966C271.991 91.1071 273.376 86.307 276.041 82.2068C278.706 78.1067 282.53 74.8919 287.027 72.9713C291.524 71.0508 296.491 70.5113 301.295 71.4215C306.1 72.3317 310.525 74.6505 314.008 78.0828C317.491 81.5152 319.874 85.906 320.855 90.6967C321.835 95.4874 321.368 100.462 319.514 104.986C317.659 109.511 314.501 113.382 310.44 116.106C306.379 118.831 301.6 120.286 296.71 120.286C293.497 120.31 290.31 119.7 287.332 118.492C284.355 117.284 281.644 115.502 279.355 113.246C277.067 110.991 275.244 108.307 273.993 105.347C272.742 102.387 272.086 99.2099 272.062 95.9966Z" fill="url(#paint6_linear)"/>
<path d="M272.062 29.394C271.991 24.5045 273.376 19.7044 276.041 15.6043C278.706 11.5042 282.53 8.28933 287.027 6.36877C291.524 4.44821 296.491 3.90874 301.295 4.81895C306.1 5.72917 310.525 8.04794 314.008 11.4803C317.491 14.9127 319.874 19.3035 320.855 24.0942C321.835 28.8849 321.368 33.859 319.514 38.3837C317.659 42.9083 314.501 46.7791 310.44 49.5036C306.379 52.2281 301.6 53.6832 296.71 53.6837C293.497 53.7073 290.31 53.0977 287.332 51.8898C284.355 50.6819 281.644 48.8993 279.355 46.6438C277.067 44.3883 275.244 41.704 273.993 38.7443C272.742 35.7845 272.086 32.6073 272.062 29.394Z" fill="url(#paint7_linear)"/>
<path d="M205.459 363.501C205.526 358.704 207.011 354.034 209.727 350.079C212.443 346.124 216.268 343.061 220.721 341.276C225.174 339.49 230.056 339.063 234.752 340.047C239.448 341.031 243.747 343.382 247.109 346.805C250.471 350.228 252.745 354.569 253.645 359.281C254.545 363.994 254.03 368.867 252.165 373.288C250.3 377.708 247.169 381.478 243.166 384.123C239.163 386.767 234.467 388.168 229.67 388.149C223.194 388.081 217.009 385.448 212.471 380.828C207.933 376.208 205.412 369.977 205.459 363.501Z" fill="url(#paint8_linear)"/>
<path d="M205.459 296.54C205.456 291.727 206.88 287.022 209.554 283.019C212.227 279.017 216.028 275.898 220.475 274.058C224.923 272.218 229.816 271.739 234.536 272.683C239.256 273.627 243.589 275.951 246.987 279.36C250.384 282.768 252.694 287.109 253.622 291.832C254.55 296.555 254.056 301.447 252.201 305.888C250.347 310.329 247.215 314.12 243.204 316.78C239.193 319.44 234.483 320.85 229.67 320.83C223.243 320.804 217.088 318.234 212.551 313.682C208.015 309.13 205.465 302.967 205.459 296.54V296.54Z" stroke="url(#paint9_linear)" stroke-width="2"/>
<mask id="path-11-inside-1" fill="white">
<path d="M229.669 188.401C224.623 188.468 219.671 187.033 215.443 184.278C211.214 181.524 207.901 177.574 205.923 172.931C203.945 168.288 203.393 163.162 204.336 158.204C205.279 153.247 207.675 148.681 211.22 145.089C214.764 141.497 219.297 139.04 224.242 138.03C229.186 137.021 234.319 137.505 238.988 139.42C243.657 141.335 247.651 144.596 250.462 148.787C253.273 152.978 254.774 157.911 254.775 162.957C254.798 166.277 254.167 169.568 252.918 172.644C251.669 175.719 249.826 178.519 247.495 180.882C245.163 183.245 242.389 185.125 239.33 186.415C236.272 187.705 232.989 188.38 229.669 188.401Z"/>
</mask>
<path d="M254.775 162.957L252.775 162.958L252.775 162.972L254.775 162.957ZM229.643 186.401C224.993 186.463 220.431 185.141 216.535 182.602L214.351 185.954C218.912 188.925 224.253 190.473 229.696 190.401L229.643 186.401ZM216.535 182.602C212.638 180.064 209.585 176.425 207.763 172.147L204.083 173.715C206.216 178.722 209.79 182.983 214.351 185.954L216.535 182.602ZM207.763 172.147C205.941 167.869 205.432 163.146 206.301 158.578L202.371 157.83C201.354 163.178 201.95 168.707 204.083 173.715L207.763 172.147ZM206.301 158.578C207.17 154.01 209.378 149.804 212.644 146.494L209.796 143.684C205.973 147.559 203.389 152.483 202.371 157.83L206.301 158.578ZM212.644 146.494C215.909 143.184 220.086 140.92 224.642 139.99L223.842 136.071C218.508 137.16 213.619 139.81 209.796 143.684L212.644 146.494ZM224.642 139.99C229.198 139.06 233.927 139.506 238.229 141.27L239.747 137.57C234.711 135.504 229.175 134.982 223.842 136.071L224.642 139.99ZM238.229 141.27C242.531 143.035 246.211 146.04 248.801 149.901L252.123 147.673C249.091 143.153 244.783 139.636 239.747 137.57L238.229 141.27ZM248.801 149.901C251.391 153.763 252.774 158.308 252.775 162.958L256.775 162.957C256.774 157.514 255.155 152.194 252.123 147.673L248.801 149.901ZM252.775 162.972C252.796 166.028 252.216 169.059 251.065 171.891L254.771 173.397C256.119 170.078 256.8 166.525 256.775 162.943L252.775 162.972ZM251.065 171.891C249.915 174.723 248.218 177.301 246.071 179.477L248.918 182.286C251.434 179.736 253.423 176.716 254.771 173.397L251.065 171.891ZM246.071 179.477C243.924 181.653 241.369 183.384 238.553 184.572L240.108 188.258C243.408 186.865 246.402 184.836 248.918 182.286L246.071 179.477ZM238.553 184.572C235.736 185.76 232.714 186.382 229.657 186.401L229.682 190.401C233.264 190.378 236.807 189.65 240.108 188.258L238.553 184.572Z" fill="url(#paint10_linear)" mask="url(#path-11-inside-1)"/>
<path d="M229.67 120.102C224.902 120.102 220.241 118.688 216.277 116.039C212.313 113.391 209.224 109.626 207.399 105.221C205.575 100.817 205.097 95.9699 206.027 91.294C206.958 86.618 209.253 82.3228 212.625 78.9517C215.996 75.5805 220.291 73.2847 224.967 72.3545C229.643 71.4244 234.49 71.9018 238.894 73.7263C243.299 75.5508 247.064 78.6404 249.712 82.6045C252.361 86.5686 253.775 91.2291 253.775 95.9967C253.775 102.39 251.235 108.521 246.715 113.042C242.194 117.562 236.063 120.102 229.67 120.102Z" stroke="url(#paint11_linear)" stroke-width="2"/>
<path d="M229.67 53.5192H229.669C224.901 53.5192 220.24 52.105 216.275 49.4554C212.311 46.8058 209.221 43.04 207.397 38.6342C205.573 34.2284 205.097 29.3806 206.029 24.7041C206.96 20.0277 209.258 15.7325 212.631 12.3621C216.004 8.9917 220.301 6.69741 224.979 5.76946C229.656 4.84151 234.503 5.32159 238.907 7.14899C243.312 8.97639 247.075 12.069 249.722 16.0356C252.368 20.0022 253.779 24.6646 253.775 29.433V29.4338C253.775 32.5983 253.151 35.7319 251.94 38.6553C250.728 41.5787 248.952 44.2347 246.714 46.4715C244.475 48.7083 241.818 50.482 238.893 51.6913C235.969 52.9006 232.835 53.5217 229.67 53.5192Z" stroke="url(#paint12_linear)" stroke-width="2"/>
<mask id="path-15-inside-2" fill="white">
<path d="M163.146 321.626C158.179 321.63 153.323 320.16 149.191 317.403C145.06 314.646 141.839 310.725 139.936 306.137C138.033 301.549 137.535 296.499 138.503 291.628C139.471 286.756 141.862 282.281 145.374 278.768C148.887 275.256 153.362 272.865 158.234 271.897C163.105 270.929 168.155 271.428 172.743 273.33C177.331 275.233 181.252 278.454 184.009 282.585C186.766 286.717 188.236 291.573 188.232 296.54C188.232 299.835 187.583 303.097 186.322 306.14C185.062 309.184 183.214 311.949 180.884 314.279C178.555 316.608 175.79 318.456 172.746 319.716C169.703 320.977 166.441 321.626 163.146 321.626Z"/>
</mask>
<path d="M188.232 296.54L186.232 296.539V296.54H188.232ZM163.145 319.626C158.573 319.63 154.104 318.277 150.301 315.74L148.081 319.067C152.542 322.043 157.785 323.63 163.148 323.626L163.145 319.626ZM150.301 315.74C146.499 313.202 143.535 309.594 141.784 305.371L138.089 306.903C140.143 311.857 143.62 316.09 148.081 319.067L150.301 315.74ZM141.784 305.371C140.032 301.148 139.573 296.501 140.464 292.017L136.541 291.238C135.496 296.498 136.034 301.95 138.089 306.903L141.784 305.371ZM140.464 292.017C141.355 287.534 143.556 283.415 146.789 280.183L143.96 277.354C140.168 281.146 137.586 285.978 136.541 291.238L140.464 292.017ZM146.789 280.183C150.021 276.95 154.14 274.749 158.623 273.858L157.844 269.935C152.584 270.98 147.752 273.562 143.96 277.354L146.789 280.183ZM158.623 273.858C163.107 272.967 167.754 273.427 171.977 275.178L173.509 271.483C168.555 269.428 163.104 268.89 157.844 269.935L158.623 273.858ZM171.977 275.178C176.2 276.929 179.808 279.893 182.346 283.695L185.673 281.475C182.696 277.014 178.463 273.537 173.509 271.483L171.977 275.178ZM182.346 283.695C184.883 287.498 186.235 291.968 186.232 296.539L190.232 296.542C190.236 291.179 188.649 285.936 185.673 281.475L182.346 283.695ZM186.232 296.54C186.232 299.572 185.635 302.574 184.475 305.375L188.17 306.906C189.531 303.619 190.232 300.097 190.232 296.54H186.232ZM184.475 305.375C183.314 308.176 181.614 310.721 179.47 312.864L182.299 315.693C184.814 313.178 186.809 310.192 188.17 306.906L184.475 305.375ZM179.47 312.864C177.327 315.008 174.782 316.708 171.981 317.869L173.512 321.564C176.798 320.203 179.784 318.208 182.299 315.693L179.47 312.864ZM171.981 317.869C169.18 319.029 166.178 319.626 163.146 319.626V323.626C166.703 323.626 170.225 322.925 173.512 321.564L171.981 317.869Z" fill="url(#paint13_linear)" mask="url(#path-15-inside-2)"/>
<mask id="path-17-inside-3" fill="white">
<path d="M163.146 255.023C158.18 255.027 153.324 253.558 149.193 250.802C145.062 248.046 141.841 244.126 139.938 239.539C138.035 234.952 137.535 229.904 138.501 225.032C139.468 220.161 141.857 215.686 145.367 212.173C148.878 208.66 153.351 206.267 158.221 205.297C163.092 204.326 168.141 204.822 172.729 206.722C177.318 208.621 181.24 211.839 183.999 215.968C186.759 220.097 188.232 224.952 188.232 229.918C188.232 236.573 185.59 242.956 180.886 247.663C176.182 252.371 169.801 255.018 163.146 255.023Z"/>
</mask>
<path d="M188.232 229.918H190.232H188.232ZM163.145 253.023C158.574 253.027 154.105 251.675 150.303 249.138L148.083 252.466C152.544 255.442 157.786 257.028 163.148 257.023L163.145 253.023ZM150.303 249.138C146.501 246.602 143.537 242.994 141.785 238.773L138.091 240.306C140.146 245.258 143.623 249.49 148.083 252.466L150.303 249.138ZM141.785 238.773C140.034 234.551 139.574 229.905 140.463 225.422L136.539 224.643C135.496 229.903 136.036 235.353 138.091 240.306L141.785 238.773ZM140.463 225.422C141.352 220.938 143.552 216.82 146.782 213.587L143.953 210.759C140.163 214.552 137.583 219.384 136.539 224.643L140.463 225.422ZM146.782 213.587C150.013 210.353 154.13 208.151 158.612 207.258L157.831 203.335C152.572 204.383 147.743 206.966 143.953 210.759L146.782 213.587ZM158.612 207.258C163.095 206.365 167.741 206.822 171.964 208.57L173.494 204.874C168.54 202.823 163.089 202.288 157.831 203.335L158.612 207.258ZM171.964 208.57C176.187 210.318 179.797 213.279 182.337 217.08L185.662 214.857C182.683 210.399 178.448 206.925 173.494 204.874L171.964 208.57ZM182.337 217.08C184.876 220.88 186.232 225.347 186.232 229.918L190.232 229.918C190.232 224.556 188.642 219.315 185.662 214.857L182.337 217.08ZM186.232 229.918C186.232 236.043 183.8 241.917 179.471 246.249L182.3 249.077C187.379 243.994 190.232 237.103 190.232 229.918L186.232 229.918ZM179.471 246.249C175.142 250.582 169.27 253.018 163.145 253.023L163.148 257.023C170.333 257.018 177.222 254.159 182.3 249.077L179.471 246.249Z" fill="url(#paint14_linear)" mask="url(#path-17-inside-3)"/>
<path d="M163.146 187.605C176.561 187.605 187.436 176.57 187.436 162.957C187.436 149.345 176.561 138.31 163.146 138.31C149.732 138.31 138.857 149.345 138.857 162.957C138.857 176.57 149.732 187.605 163.146 187.605Z" fill="url(#paint15_linear)"/>
<path d="M186.779 101.571C189.86 88.5149 181.774 75.4328 168.718 72.3513C155.662 69.2698 142.58 77.3558 139.499 90.4119C136.417 103.468 144.503 116.55 157.559 119.632C170.615 122.713 183.697 114.627 186.779 101.571Z" stroke="url(#paint16_linear)" stroke-width="2"/>
<path d="M163.146 53.3778H163.146C158.376 53.3816 153.713 51.9706 149.746 49.3233C145.779 46.676 142.687 42.9115 140.86 38.5061C139.033 34.1006 138.554 29.2523 139.483 24.5745C140.413 19.8968 142.709 15.5999 146.082 12.2275C149.454 8.85518 153.751 6.55899 158.428 5.62949C163.106 4.69999 167.955 5.17897 172.36 7.00581C176.765 8.83265 180.53 11.9252 183.177 15.8923C185.825 19.8593 187.236 24.5224 187.232 29.2916V29.2924C187.232 32.4554 186.609 35.5873 185.398 38.5095C184.188 41.4317 182.414 44.0868 180.177 46.3234C177.941 48.5599 175.286 50.334 172.363 51.5444C169.441 52.7548 166.309 53.3778 163.146 53.3778Z" stroke="url(#paint17_linear)" stroke-width="2"/>
<path d="M96.1858 320.83C109.798 320.83 120.834 309.955 120.834 296.54C120.834 283.126 109.798 272.251 96.1858 272.251C82.5733 272.251 71.5381 283.126 71.5381 296.54C71.5381 309.955 82.5733 320.83 96.1858 320.83Z" stroke="url(#paint18_linear)" stroke-width="2"/>
<path d="M96.1858 187.605C109.798 187.605 120.834 176.57 120.834 162.957C120.834 149.345 109.798 138.31 96.1858 138.31C82.5733 138.31 71.5381 149.345 71.5381 162.957C71.5381 176.57 82.5733 187.605 96.1858 187.605Z" stroke="url(#paint19_linear)" stroke-width="2"/>
<path d="M96.1858 120.286C109.798 120.286 120.834 109.412 120.834 95.9967C120.834 82.5819 109.798 71.707 96.1858 71.707C82.5733 71.707 71.5381 82.5819 71.5381 95.9967C71.5381 109.412 82.5733 120.286 96.1858 120.286Z" stroke="url(#paint20_linear)" stroke-width="2"/>
<path d="M29.225 320.83C42.6398 320.83 53.5147 309.955 53.5147 296.54C53.5147 283.126 42.6398 272.251 29.225 272.251C15.8102 272.251 4.9353 283.126 4.9353 296.54C4.9353 309.955 15.8102 320.83 29.225 320.83Z" stroke="url(#paint21_linear)" stroke-width="2"/>
<path d="M4.87574 229.918C4.87967 225.115 6.30758 220.421 8.97895 216.429C11.6503 212.437 15.4452 209.327 19.8839 207.491C24.3226 205.656 29.2058 205.178 33.9163 206.117C38.6267 207.057 42.9528 209.372 46.3478 212.77C49.7428 216.167 52.0542 220.495 52.9898 225.207C53.9254 229.918 53.4432 234.801 51.6042 239.238C49.7652 243.675 46.6519 247.467 42.6579 250.135C38.664 252.803 33.9686 254.228 29.1654 254.228C25.974 254.228 22.8138 253.599 19.8656 252.377C16.9173 251.155 14.2387 249.364 11.983 247.106C9.72721 244.849 7.93847 242.169 6.71897 239.219C5.49947 236.27 4.87313 233.109 4.87574 229.918V229.918Z" stroke="url(#paint22_linear)" stroke-width="2"/>
<path d="M29.225 120.286C42.6398 120.286 53.5147 109.412 53.5147 95.9967C53.5147 82.5819 42.6398 71.707 29.225 71.707C15.8102 71.707 4.9353 82.5819 4.9353 95.9967C4.9353 109.412 15.8102 120.286 29.225 120.286Z" stroke="url(#paint23_linear)" stroke-width="2"/>
<path d="M52.8599 34.9665C55.9414 21.9104 47.8554 8.82832 34.7993 5.74681C21.7432 2.66529 8.6611 10.7513 5.57958 23.8074C2.49806 36.8635 10.5841 49.9456 23.6401 53.0271C36.6962 56.1086 49.7783 48.0226 52.8599 34.9665Z" stroke="url(#paint24_linear)" stroke-width="2"/>
<defs>
<linearGradient id="paint0_linear" x1="363.689" y1="339.53" x2="363.689" y2="388.149" gradientUnits="userSpaceOnUse">
<stop stop-color="#E1A352"/>
<stop offset="1" stop-color="#E3A655"/>
</linearGradient>
<linearGradient id="paint1_linear" x1="363.69" y1="205.608" x2="363.69" y2="254.228" gradientUnits="userSpaceOnUse">
<stop stop-color="#EAA853"/>
<stop offset="1" stop-color="#E7A652"/>
</linearGradient>
<linearGradient id="paint2_linear" x1="363.69" y1="5.0647" x2="363.69" y2="53.6838" gradientUnits="userSpaceOnUse">
<stop stop-color="#E1A352"/>
<stop offset="1" stop-color="#E3A655"/>
</linearGradient>
<linearGradient id="paint3_linear" x1="296.71" y1="338.854" x2="296.71" y2="388.149" gradientUnits="userSpaceOnUse">
<stop stop-color="#E1A352"/>
<stop offset="1" stop-color="#E3A655"/>
</linearGradient>
<linearGradient id="paint4_linear" x1="296.708" y1="204.932" x2="296.708" y2="254.228" gradientUnits="userSpaceOnUse">
<stop stop-color="#E1A352"/>
<stop offset="1" stop-color="#E3A655"/>
</linearGradient>
<linearGradient id="paint5_linear" x1="296.71" y1="138.31" x2="296.71" y2="187.605" gradientUnits="userSpaceOnUse">
<stop stop-color="#EAA853"/>
<stop offset="1" stop-color="#E7A652"/>
</linearGradient>
<linearGradient id="paint6_linear" x1="296.707" y1="70.9907" x2="296.707" y2="120.287" gradientUnits="userSpaceOnUse">
<stop stop-color="#EAA853"/>
<stop offset="1" stop-color="#E7A652"/>
</linearGradient>
<linearGradient id="paint7_linear" x1="296.707" y1="4.38818" x2="296.707" y2="53.6844" gradientUnits="userSpaceOnUse">
<stop stop-color="#EAA853"/>
<stop offset="1" stop-color="#E7A652"/>
</linearGradient>
<linearGradient id="paint8_linear" x1="229.767" y1="339.53" x2="229.767" y2="388.149" gradientUnits="userSpaceOnUse">
<stop stop-color="#EAA853"/>
<stop offset="1" stop-color="#E7A652"/>
</linearGradient>
<linearGradient id="paint9_linear" x1="229.769" y1="272.211" x2="229.769" y2="320.83" gradientUnits="userSpaceOnUse">
<stop stop-color="#E1A352"/>
<stop offset="1" stop-color="#E3A655"/>
</linearGradient>
<linearGradient id="paint10_linear" x1="229.331" y1="137.516" x2="229.331" y2="188.403" gradientUnits="userSpaceOnUse">
<stop stop-color="#E1A352"/>
<stop offset="1" stop-color="#E3A655"/>
</linearGradient>
<linearGradient id="paint11_linear" x1="229.67" y1="70.8914" x2="229.67" y2="121.102" gradientUnits="userSpaceOnUse">
<stop stop-color="#E1A352"/>
<stop offset="1" stop-color="#E3A655"/>
</linearGradient>
<linearGradient id="paint12_linear" x1="229.67" y1="4.30859" x2="229.67" y2="54.5192" gradientUnits="userSpaceOnUse">
<stop stop-color="#E1A352"/>
<stop offset="1" stop-color="#E3A655"/>
</linearGradient>
<linearGradient id="paint13_linear" x1="163.127" y1="271.415" x2="163.127" y2="321.626" gradientUnits="userSpaceOnUse">
<stop stop-color="#E1A352"/>
<stop offset="1" stop-color="#E3A655"/>
</linearGradient>
<linearGradient id="paint14_linear" x1="163.127" y1="204.813" x2="163.127" y2="255.023" gradientUnits="userSpaceOnUse">
<stop stop-color="#E1A352"/>
<stop offset="1" stop-color="#E3A655"/>
</linearGradient>
<linearGradient id="paint15_linear" x1="163.146" y1="138.31" x2="163.146" y2="187.605" gradientUnits="userSpaceOnUse">
<stop stop-color="#EAA853"/>
<stop offset="1" stop-color="#E7A652"/>
</linearGradient>
<linearGradient id="paint16_linear" x1="139.499" y1="90.4119" x2="186.779" y2="101.571" gradientUnits="userSpaceOnUse">
<stop stop-color="#E1A352"/>
<stop offset="1" stop-color="#E3A655"/>
</linearGradient>
<linearGradient id="paint17_linear" x1="163.127" y1="4.16724" x2="163.127" y2="54.3778" gradientUnits="userSpaceOnUse">
<stop stop-color="#E1A352"/>
<stop offset="1" stop-color="#E3A655"/>
</linearGradient>
<linearGradient id="paint18_linear" x1="96.1858" y1="272.251" x2="96.1858" y2="320.83" gradientUnits="userSpaceOnUse">
<stop stop-color="#E1A352"/>
<stop offset="1" stop-color="#E3A655"/>
</linearGradient>
<linearGradient id="paint19_linear" x1="96.1858" y1="138.31" x2="96.1858" y2="187.605" gradientUnits="userSpaceOnUse">
<stop stop-color="#E1A352"/>
<stop offset="1" stop-color="#E3A655"/>
</linearGradient>
<linearGradient id="paint20_linear" x1="96.1858" y1="71.707" x2="96.1858" y2="120.286" gradientUnits="userSpaceOnUse">
<stop stop-color="#E1A352"/>
<stop offset="1" stop-color="#E3A655"/>
</linearGradient>
<linearGradient id="paint21_linear" x1="29.225" y1="272.251" x2="29.225" y2="320.83" gradientUnits="userSpaceOnUse">
<stop stop-color="#E1A352"/>
<stop offset="1" stop-color="#E3A655"/>
</linearGradient>
<linearGradient id="paint22_linear" x1="29.1654" y1="205.648" x2="29.1654" y2="254.228" gradientUnits="userSpaceOnUse">
<stop stop-color="#E1A352"/>
<stop offset="1" stop-color="#E3A655"/>
</linearGradient>
<linearGradient id="paint23_linear" x1="29.225" y1="71.707" x2="29.225" y2="120.286" gradientUnits="userSpaceOnUse">
<stop stop-color="#E1A352"/>
<stop offset="1" stop-color="#E3A655"/>
</linearGradient>
<linearGradient id="paint24_linear" x1="5.57958" y1="23.8074" x2="52.8599" y2="34.9665" gradientUnits="userSpaceOnUse">
<stop stop-color="#E1A352"/>
<stop offset="1" stop-color="#E3A655"/>
</linearGradient>
</defs>
</svg>
