<svg width="68" height="18" viewBox="0 0 68 18" fill="none" xmlns="http://www.w3.org/2000/svg">
<path d="M1.00022 8.88207C1.02347 7.30505 1.51237 5.77008 2.40547 4.4701C3.29857 3.17011 4.55603 2.16311 6.01979 1.57565C7.48355 0.988192 9.08831 0.846496 10.6324 1.16837C12.1764 1.49024 13.5909 2.26132 14.698 3.38469C15.8051 4.50806 16.5554 5.93361 16.8547 7.48215C17.1539 9.0307 16.9888 10.6331 16.3799 12.0881C15.7711 13.543 14.7458 14.7856 13.4328 15.6595C12.1198 16.5335 10.5778 16.9998 9.00054 17C7.94217 16.9923 6.89569 16.7762 5.92084 16.364C4.94599 15.9519 4.06187 15.3518 3.31897 14.598C2.57606 13.8441 1.98892 12.9514 1.59107 11.9706C1.19321 10.9899 0.992445 9.9404 1.00022 8.88207V8.88207Z" stroke="url(#paint0_linear)" stroke-opacity="0.6" stroke-width="2"/>
<path d="M25 9.00001C25 7.41776 25.4692 5.87103 26.3482 4.55543C27.2273 3.23984 28.4767 2.21447 29.9385 1.60897C31.4003 1.00347 33.0089 0.845039 34.5607 1.15372C36.1126 1.4624 37.538 2.22432 38.6569 3.34315C39.7757 4.46197 40.5376 5.88743 40.8463 7.43928C41.155 8.99113 40.9965 10.5997 40.391 12.0615C39.7855 13.5233 38.7602 14.7727 37.4446 15.6518C36.129 16.5308 34.5823 17 33 17C30.8783 17 28.8434 16.1572 27.3431 14.6569C25.8429 13.1566 25 11.1217 25 9.00001V9.00001Z" stroke="url(#paint1_linear)" stroke-opacity="0.6" stroke-width="2"/>
<path d="M49 9.00001C49 7.41776 49.4692 5.87103 50.3482 4.55543C51.2273 3.23984 52.4767 2.21447 53.9385 1.60897C55.4003 1.00347 57.0089 0.845039 58.5607 1.15372C60.1126 1.4624 61.538 2.22432 62.6569 3.34315C63.7757 4.46197 64.5376 5.88743 64.8463 7.43928C65.155 8.99113 64.9965 10.5997 64.391 12.0615C63.7855 13.5233 62.7602 14.7727 61.4446 15.6518C60.129 16.5308 58.5823 17 57 17C54.8783 17 52.8434 16.1572 51.3431 14.6569C49.8429 13.1566 49 11.1217 49 9.00001Z" fill="#1822B8" fill-opacity="0.25"/>
<defs>
<linearGradient id="paint0_linear" x1="9" y1="1" x2="9" y2="17" gradientUnits="userSpaceOnUse">
<stop stop-color="#E1A352"/>
<stop offset="1" stop-color="#E3A655"/>
</linearGradient>
<linearGradient id="paint1_linear" x1="33" y1="1" x2="33" y2="17" gradientUnits="userSpaceOnUse">
<stop stop-color="#E1A352"/>
<stop offset="1" stop-color="#E3A655"/>
</linearGradient>
</defs>
</svg>
