<svg width="105" height="19" viewBox="0 0 105 19" fill="none" xmlns="http://www.w3.org/2000/svg">
<path d="M10.9411 11.2913L9.19857 9.53376L10.9411 7.77625V4.26123L5.72314 9.53376L10.9411 14.8063V11.2913Z" fill="white"/>
<path d="M0.5 0.736572V18.331H17.8962V0.736572H0.5ZM15.4138 15.8202H2.98722V3.25213H15.4138V15.8202Z" fill="white"/>
<path d="M27.9024 15.5642L29.1628 17.0031C28.9145 17.2928 28.6281 17.5439 28.3082 17.7563C27.5921 18.2488 26.7663 18.4999 25.821 18.4999C24.6037 18.4999 23.5868 18.1039 22.7705 17.3121C21.9589 16.5203 21.5483 15.5498 21.5483 14.4055C21.5483 13.2611 21.9541 12.2906 22.7705 11.4988C23.582 10.707 24.5989 10.311 25.821 10.311C26.7424 10.311 27.5635 10.5621 28.2844 11.0643C28.6042 11.2912 28.8811 11.5423 29.1055 11.8078L27.8452 13.2467C27.6781 13.0632 27.4919 12.8942 27.2866 12.7493C26.814 12.4162 26.3223 12.252 25.821 12.252C25.2243 12.252 24.7182 12.4596 24.3029 12.8797C23.8923 13.2949 23.6871 13.8067 23.6871 14.4151C23.6871 15.0235 23.8923 15.5305 24.3029 15.9505C24.7135 16.3658 25.2195 16.5782 25.821 16.5782C26.3175 16.5782 26.814 16.414 27.3105 16.0809C27.5301 15.9119 27.7306 15.7477 27.9024 15.5642Z" fill="white"/>
<path d="M30.0693 18.2777V10.5234H32.1508V14.7868L35.4352 10.5234H37.2398V18.2729H35.1584V14.0143L31.8739 18.2777H30.0693Z" fill="white"/>
<path d="M38.8057 18.2777V10.5234H40.8871V13.348H43.6799V10.5234H45.7613V18.2729H43.6799V15.3373H40.8871V18.2729H38.8057V18.2777Z" fill="white"/>
<path d="M47.3218 18.2777V10.5234H53.1794V12.4065H49.4032V13.5122H52.3058V15.2842H49.4032V16.3898H53.2892V18.2729H47.3218V18.2777Z" fill="white"/>
<path d="M54.4165 18.2777V10.5234H57.8633C58.7035 10.5234 59.3862 10.7793 59.9161 11.2911C60.446 11.8029 60.7086 12.4499 60.7086 13.2321C60.7086 14.0143 60.446 14.6613 59.9161 15.1731C59.3862 15.6849 58.7035 15.9408 57.8633 15.9408H56.4932V18.2681H54.4165V18.2777ZM56.4979 14.0674H57.7583C57.997 14.0674 58.207 13.9853 58.3741 13.8164C58.546 13.6522 58.6319 13.4542 58.6319 13.237C58.6319 13.0197 58.546 12.8217 58.3741 12.6576C58.2022 12.4934 57.997 12.4065 57.7583 12.4065H56.4979V14.0674Z" fill="white"/>
<path d="M61.835 18.2777V10.5234H67.2009V12.5175H63.9164V18.2729H61.835V18.2777Z" fill="white"/>
<path d="M68.1079 18.2777V10.5234H70.1893V14.7868L73.4738 10.5234H75.2784V18.2729H73.1969V14.0143L69.9125 18.2777H68.1079Z" fill="white"/>
<path d="M76.2427 18.2778L77.8324 15.4001C77.5842 15.2842 77.3645 15.1201 77.1736 14.9124C76.7344 14.4682 76.5148 13.8937 76.5148 13.1839C76.5148 12.4307 76.7774 11.7982 77.3025 11.2912C77.8276 10.7842 78.496 10.5283 79.3075 10.5283H82.9214V18.2778H80.84V15.8443H79.6895L78.4291 18.2778H76.2427ZM79.4173 13.9564H80.84V12.4065H79.4173C79.1786 12.4065 78.9781 12.479 78.8254 12.6286C78.6726 12.7783 78.5962 12.9618 78.5962 13.1839C78.5962 13.406 78.6726 13.5895 78.8254 13.7392C78.9781 13.884 79.1786 13.9564 79.4173 13.9564Z" fill="white"/>
<path d="M21.9635 8.40869V6.52565C22.0351 6.55462 22.0972 6.57393 22.1497 6.57876C22.2977 6.61739 22.4505 6.63187 22.6223 6.63187C23.1761 6.63187 23.558 6.40977 23.7729 5.96556L23.8254 5.85451L21.1997 0.70752H23.5007L24.8995 3.91835H24.9425L26.1264 0.70752H28.4274L25.7445 6.46288C25.4151 7.1485 25.0332 7.66996 24.594 8.02726C24.1548 8.38455 23.6105 8.5632 22.9517 8.5632C22.6749 8.5632 22.4314 8.53906 22.2309 8.48595L21.9635 8.40869Z" fill="white"/>
<path d="M29 8.46674V0.717285H31.0814V3.54185H33.8742V0.717285H35.9556V8.46674H33.8694V5.53112H31.0767V8.46674H29Z" fill="white"/>
<path d="M37.5171 8.46674V0.717285H39.5985V4.98069L42.883 0.717285H44.6875V8.46674H42.6061V4.20333L39.3216 8.46674H37.5171Z" fill="white"/>
<path d="M46.2529 8.46674V0.717285H49.6472C50.4874 0.717285 51.1414 0.915246 51.6188 1.30634C52.0915 1.69743 52.3302 2.18509 52.3302 2.76932C52.3302 3.29561 52.1344 3.7205 51.7477 4.05366C51.5997 4.17919 51.4136 4.28541 51.1796 4.37715C51.4661 4.47855 51.7191 4.61857 51.9482 4.78756C52.459 5.18831 52.7168 5.69528 52.7168 6.31331C52.7168 6.92651 52.4686 7.43831 51.9721 7.85354C51.4756 8.26878 50.7929 8.47157 49.9241 8.47157H46.2529V8.46674ZM48.3296 3.70602H49.4801C49.6997 3.70602 49.8716 3.64325 50.0005 3.52254C50.1294 3.40183 50.1914 3.2425 50.1914 3.03971C50.1914 2.84175 50.1294 2.67758 50.0005 2.55688C49.8716 2.43617 49.6997 2.3734 49.4801 2.3734H48.3296V3.70602ZM48.3296 6.8058H49.7522C49.9909 6.8058 50.1914 6.73337 50.3442 6.5837C50.497 6.43402 50.5733 6.25054 50.5733 6.02844C50.5733 5.80634 50.497 5.62286 50.3442 5.47318C50.1914 5.3235 49.9957 5.25108 49.7522 5.25108H48.3296V6.8058Z" fill="white"/>
<path d="M53.7817 8.46674V0.717285H59.6394V2.60033H55.8632V3.70602H58.7657V5.47801H55.8632V6.5837H59.7492V8.46674H53.7817Z" fill="white"/>
<path d="M60.8755 8.46674V0.717285H64.3223C65.1625 0.717285 65.8452 0.973186 66.3751 1.48499C66.905 1.99679 67.1675 2.64379 67.1675 3.42597C67.1675 4.20816 66.905 4.85516 66.3751 5.36696C65.8452 5.87876 65.1625 6.13466 64.3223 6.13466H62.9522V8.46191H60.8755V8.46674ZM62.9569 4.26127H64.2172C64.4559 4.26127 64.666 4.17919 64.8331 4.0102C65.0049 3.84604 65.0909 3.64808 65.0909 3.4308C65.0909 3.21353 65.0049 3.01557 64.8331 2.8514C64.6612 2.68724 64.4559 2.60033 64.2172 2.60033H62.9569V4.26127Z" fill="white"/>
<path d="M74.2096 5.75321L75.4699 7.19205C75.2217 7.48175 74.9352 7.73283 74.6154 7.94527C73.8993 8.43776 73.0734 8.68883 72.1281 8.68883C70.9108 8.68883 69.8939 8.29291 69.0776 7.50107C68.266 6.70922 67.8555 5.73873 67.8555 4.59442C67.8555 3.4501 68.2613 2.47961 69.0776 1.68777C69.8892 0.895922 70.906 0.5 72.1281 0.5C73.0495 0.5 73.8706 0.751073 74.5915 1.25322C74.9113 1.48015 75.1882 1.73122 75.4126 1.99678L74.1523 3.43562C73.9852 3.25214 73.799 3.08315 73.5937 2.9383C73.1211 2.60515 72.6294 2.44099 72.1281 2.44099C71.5314 2.44099 71.0254 2.6486 70.61 3.06867C70.1995 3.4839 69.9942 3.99571 69.9942 4.60407C69.9942 5.21244 70.1995 5.71942 70.61 6.13948C71.0206 6.55472 71.5266 6.76716 72.1281 6.76716C72.6246 6.76716 73.1211 6.603 73.6176 6.26985C73.8372 6.10568 74.0329 5.93669 74.2096 5.75321Z" fill="white"/>
<path d="M76.377 8.46674V0.717285H78.4584V4.98069L81.7429 0.717285H83.5474V8.46674H81.466V4.20333L78.1815 8.46674H76.377Z" fill="white"/>
<path d="M86.5881 8.46674V2.60033H84.4541V0.717285H90.8034V2.60033H88.6695V8.46674H86.5881Z" fill="white"/>
<path d="M91.7109 8.46674V0.717285H97.5686V2.60033H93.7924V3.70602H96.6949V5.47801H93.7924V6.5837H97.6784V8.46674H91.7109Z" fill="white"/>
<path d="M100.284 8.46674V2.60033H98.1504V0.717285H104.5V2.60033H102.366V8.46674H100.284Z" fill="white"/>
</svg>
