<svg width="60" height="11" viewBox="0 0 60 11" fill="none" xmlns="http://www.w3.org/2000/svg">
<path d="M11.6748 0.18232L8.90405 8.96409L6.07209 0.18232H0.5V10.8177H3.54628V1.89917L6.71502 10.8177H11.0165L14.1853 1.89917V10.8177H17.2316L17.2469 0.18232H11.6748Z" fill="white"/>
<path d="M29.9967 0.18232H33.2419L28.5271 10.8177H23.6286L18.929 0.18232H22.0672L22.9397 2.23343H29.1241L29.9967 0.18232ZM23.9653 4.60359L26.0319 9.46547L28.1138 4.60359H23.9653Z" fill="white"/>
<path d="M43.5109 6.89779C43.1894 7.74862 42.1025 8.43232 40.2503 8.43232C37.7092 8.43232 36.4233 7.24724 36.4233 5.5C36.4233 3.75276 37.6632 2.56768 40.0513 2.56768C41.6892 2.56768 42.9598 3.11464 43.3119 3.95028L46.3734 3.75276C45.8989 1.47376 43.6333 0 40.0513 0C35.7344 0 33.2392 2.0511 33.2392 5.5C33.2392 8.9489 35.7804 11 40.2503 11C44.0007 11 46.1744 9.6326 46.6031 7.04972L43.5109 6.89779Z" fill="white"/>
<path d="M47.2843 2.76519H51.8001V10.8177H54.9842V2.76519H59.5V0.18232H47.2843V2.76519Z" fill="white"/>
</svg>
